<?xml version="1.0" encoding="UTF-8"?>
<svg width="50px" height="36px" viewBox="0 0 50 36" version="1.1" xmlns="http://www.w3.org/2000/svg" xmlns:xlink="http://www.w3.org/1999/xlink">
    <!-- Generator: Sketch 53.2 (72643) - https://sketchapp.com -->
    <title>Group 20</title>
    <desc>Created with Sketch.</desc>
    <g id="Page-1" stroke="none" stroke-width="1" fill="none" fill-rule="evenodd">
        <g id="Group-20" fill-rule="nonzero">
            <g id="Group-19" transform="translate(10.000000, 0.000000)">
                <path d="M24,13.5 C24,18.194357 20.1943569,22 15.5,22 C10.8056431,22 7,18.194357 7,13.5 C7,8.80564314 10.8056431,5 15.5,5 C20.1943569,5 24,8.80564314 24,13.5 L24,13.5 Z" id="Path" fill="#FECE2F"></path>
                <path d="M10.7464172,12.9999924 C10.6742253,13.0003279 10.6027049,12.9895905 10.5338708,12.9687867 C10.1389978,12.8516815 9.91402758,12.4369478 10.0308777,12.0423468 C10.60707,10.1139691 12.1167205,8.60535846 14.0464273,8.0295631 C14.4423076,7.91514225 14.8559841,8.14297738 14.9704838,8.53824944 C15.0836404,8.92983058 14.8616923,9.3395311 14.4715202,9.45864962 C13.0249955,9.89049617 11.8930935,11.0216186 11.4609493,12.4671468 C11.3669319,12.7832303 11.0761496,12.9999924 10.7464172,12.9999924 Z" id="Path" fill="#F3C52D"></path>
                <path d="M23.5876438,7 C23.2629978,6.99960307 23,6.60513062 23,6.11819119 C23,5.88444443 23.061913,5.66022216 23.1719805,5.49513105 L24.0038365,4.24742325 C24.2372007,3.90930396 24.6094722,3.91882844 24.8348988,4.26925012 C25.0550337,4.61094117 25.0550337,5.15264634 24.8348988,5.49394046 L24.0033073,6.74085461 C23.8929753,6.90634254 23.7434846,6.99960307 23.5876438,7 Z" id="Path" fill="#FBB540"></path>
                <path d="M24.4139357,23.9999987 C24.2586625,23.9999987 24.1097162,23.9074537 23.9997858,23.7425339 L23.1717497,22.500296 C22.9429259,22.1574051 22.9426623,21.600949 23.1714861,21.2576626 C23.4000461,20.9143762 23.7709621,20.9139808 23.9997858,21.2572671 L24.8286128,22.500296 C25.057173,22.8435823 25.057173,23.399643 24.8283492,23.7429294 C24.7184189,23.9078492 24.569209,24.0003942 24.4139357,23.9999987 L24.4139357,23.9999987 Z" id="Path" fill="#FBB540"></path>
                <path d="M7.41266479,7 C7.25677426,7 7.10723587,6.90713359 6.99713326,6.74164101 L6.16501158,5.49389819 C5.93951296,5.14386352 5.94586503,4.58547476 6.17956843,4.24734598 C6.40744907,3.91755134 6.76872325,3.91755134 6.99660388,4.24734598 L7.8279316,5.49508881 C8.05740022,5.83917059 8.05740022,6.39755923 7.82766695,6.74164101 C7.71756434,6.90713359 7.56802588,7 7.41213542,7 L7.41266479,7 Z" id="Path" fill="#FBB540"></path>
                <path d="M3.78939922,14.7621306 L0.797077069,14.7621306 C0.383890086,14.7621306 0.0488281034,14.4144369 0.0488281034,13.9856729 C0.0488281034,13.5569089 0.383890086,13.2092152 0.797077069,13.2092152 L3.78939922,13.2092152 C4.20258621,13.2092152 4.53731138,13.5569089 4.53731138,13.9856729 C4.53731138,14.4144369 4.20258621,14.7621306 3.78939922,14.7621306 Z" id="Path" fill="#FECE2F"></path>
                <path d="M15.0107759,27.9591154 C14.5975889,27.9591154 14.2628637,27.6114217 14.2628637,27.1826577 L14.2628637,25.6300918 C14.2628637,25.2013279 14.5975889,24.8539836 15.0107759,24.8539836 C15.4239628,24.8539836 15.7590248,25.2013279 15.7590248,25.6300918 L15.7590248,27.1826577 C15.7590248,27.6114217 15.4239628,27.9591154 15.0107759,27.9591154 Z" id="Path" fill="#FECE2F"></path>
                <path d="M29.2248114,14.7621306 L26.2324892,14.7621306 C25.8193022,14.7621306 25.4842403,14.4144369 25.4842403,13.9856729 C25.4842403,13.5569089 25.8193022,13.2092152 26.2324892,13.2092152 L29.2248114,13.2092152 C29.6379984,13.2092152 29.9727236,13.5569089 29.9727236,13.9856729 C29.9727236,14.4144369 29.6379984,14.7621306 29.2248114,14.7621306 Z" id="Path" fill="#FECE2F"></path>
                <path d="M15.0107759,3.1173622 C14.5975889,3.1173622 14.2628637,2.77001799 14.2628637,2.34125399 L14.2628637,0.788688077 C14.2628637,0.359924166 14.5975889,0.0122304537 15.0107759,0.0122304537 C15.4239628,0.0122304537 15.7590248,0.359924166 15.7590248,0.788688077 L15.7590248,2.34125399 C15.7590248,2.77001799 15.4239628,3.1173622 15.0107759,3.1173622 Z" id="Path" fill="#FECE2F"></path>
                <path d="M6.59073081,24 C6.26437931,23.999601 6,23.6031011 6,23.1136588 C6,22.8787107 6.06223821,22.6533359 6.17288387,22.4873963 L7.00910967,21.2340732 C7.24928523,20.9025928 7.62298026,20.9261275 7.84400561,21.2859293 C8.05199813,21.6253876 8.05199813,22.1471402 7.84400561,22.4861996 L7.00777981,23.7403204 C6.89713416,23.90626 6.74712419,23.999601 6.59073081,24 L6.59073081,24 Z" id="Path" fill="#FBB540"></path>
            </g>
            <g id="sunrise-(1)-copy-2" transform="translate(0.000000, 33.000000)" fill="#797979">
                <path d="M48.9578125,0.106347656 L1.04140625,0.106347656 C0.466113281,0.106347656 0,0.571777344 0,1.14697266 C0,1.72216797 0.466113281,2.18759766 1.04140625,2.18759766 L48.9578125,2.18759766 C49.531543,2.18759766 49.9984375,1.72216797 49.9984375,1.14697266 C49.9984375,0.571777344 49.531543,0.106347656 48.9578125,0.106347656 Z" id="Path"></path>
            </g>
        </g>
    </g>
</svg>