<?xml version="1.0" encoding="UTF-8"?>
<svg width="486px" height="237px" viewBox="0 0 486 237" version="1.1" xmlns="http://www.w3.org/2000/svg" xmlns:xlink="http://www.w3.org/1999/xlink">
    <!-- Generator: Sketch 53.2 (72643) - https://sketchapp.com -->
    <title>departures</title>
    <desc>Created with Sketch.</desc>
    <g id="Page-1" stroke="none" stroke-width="1" fill="none" fill-rule="evenodd">
        <g id="departures" fill="#000000" fill-rule="nonzero">
            <path d="M468.829,28.302 C435.421,8.831 397.461,19.174 371.504,31.278 L294.126,67.36 L161.046,0.426 L81.793,3.831 L191.686,115.239 L121.651,148.508 L48.786,120.777 L0,143.525 L44.089,198.274 C39.431,203.831 35.21,211.655 39.042,219.873 C44.047,230.605 58.84,236.014 83.105,236.013 C88.081,236.013 93.456,235.786 99.225,235.33 C125.861,233.226 154.739,226.427 172.796,218.007 L449.392,89.028 C473.282,77.887 485.182,66.189 485.772,53.263 C486.078,46.559 483.387,36.784 468.829,28.302 Z M440.938,70.901 L164.343,199.881 C148.959,207.055 123.702,213.066 99.998,215.194 C75.77,217.369 62.816,214.638 58.498,212.319 C59.387,211.102 61.047,209.19 64.11,206.494 L71.294,200.171 L31.586,150.863 L49.572,142.475 L122.515,170.238 L225.684,121.229 L127.684,21.877 L156.705,20.63 L293.794,89.579 L379.954,49.403 C411.421,34.73 437.933,33.446 458.757,45.58 L458.758,45.581 C464.005,48.638 465.839,51.305 465.791,52.351 C465.789,52.423 465.188,59.595 440.938,70.901 Z" id="Shape"></path>
        </g>
    </g>
</svg>