<?xml version="1.0" encoding="UTF-8"?>
<svg width="65px" height="65px" viewBox="0 0 65 65" version="1.1" xmlns="http://www.w3.org/2000/svg" xmlns:xlink="http://www.w3.org/1999/xlink">
    <!-- Generator: Sketch 53.2 (72643) - https://sketchapp.com -->
    <title>Group 21</title>
    <desc>Created with Sketch.</desc>
    <g id="Page-1" stroke="none" stroke-width="1" fill="none" fill-rule="evenodd">
        <g id="Sales-Page-1" transform="translate(-1153.000000, -150.000000)" fill="#A9C31D">
            <g id="Group-14" transform="translate(1135.000000, 130.000000)">
                <g id="Group-21" transform="translate(18.000000, 19.045773)">
                    <circle id="Oval-Copy-4" opacity="0.15" cx="32.5" cy="33.4542272" r="32.5"></circle>
                    <path d="M48.712047,22.81515 L46.2668624,22.8150325 L46.2668624,20.2838748 C46.2668624,19.7043782 45.8428691,19.2120292 45.2697148,19.1262909 C45.1696477,19.1112574 42.7875336,18.7652507 39.9190604,19.287197 C36.7212584,19.8690426 34.1709564,21.3039252 32.4412752,23.473103 C30.7114765,21.3039252 28.1611745,19.8690426 24.9634899,19.287197 C22.0948993,18.7653681 19.7127852,19.1112574 19.6128356,19.1262909 C19.0396812,19.2121466 18.6156879,19.7044956 18.6156879,20.2838748 L18.6156879,22.8150325 L16.1705034,22.8150325 C15.5241779,22.8150325 15,23.3392104 15,23.9856533 L15,46.0432876 C15,46.4222976 15.1834564,46.7778178 15.4924664,46.9974487 C15.8014765,47.2170795 16.1976342,47.2734554 16.5555034,47.1487238 C16.6433557,47.1183044 25.414849,44.1247473 31.9555034,47.1082037 C32.2641611,47.2490258 32.6185067,47.2490258 32.9271644,47.1082037 C39.4494966,44.1332037 48.2397819,47.1185393 48.3271644,47.1487238 C48.4526007,47.1924151 48.5825,47.2139084 48.7119295,47.2139084 C48.9518792,47.2139084 49.1893624,47.14015 49.3902013,46.9975661 C49.6992114,46.7779352 49.8826678,46.4224151 49.8826678,46.043405 L49.8826678,23.9857708 C49.8825503,23.3393278 49.3584899,22.81515 48.712047,22.81515 Z M17.3411242,44.4770963 L17.3411242,25.1561567 L18.6156879,25.1561567 L18.6156879,40.7447809 C18.6156879,41.0849151 18.7644966,41.4079017 19.0218289,41.6302339 C19.2791611,41.8525661 19.6214094,41.9522809 19.9577852,41.9025997 C20.0223826,41.8932037 25.1074832,41.1950829 28.822651,43.7440929 C24.2462248,42.9615258 19.6659228,43.8667104 17.3411242,44.4770963 Z M31.2707718,42.6884554 C29.6344631,41.209999 27.503104,40.2102674 24.9634899,39.7482205 C23.7413087,39.5257708 22.6074497,39.4609386 21.7007383,39.4609386 C21.4315436,39.4609386 21.1823154,39.4666936 20.9569295,39.4757372 L20.9569295,21.3587742 L20.9568121,21.3587742 C23.2065604,21.2572976 28.6793624,21.4978346 31.2707718,25.8908044 L31.2707718,42.6884554 Z M33.6117785,25.8909218 C36.1939094,21.516744 41.6752852,21.2652842 43.9257383,21.3617104 L43.9257383,39.4757372 C42.9411577,39.4360393 41.5039262,39.4597641 39.9190604,39.7482205 C37.3794463,40.2102674 35.2480872,41.2098815 33.6117785,42.6884554 L33.6117785,25.8909218 Z M36.0560235,43.7447976 C39.7716611,41.1942607 44.8594631,41.8930862 44.9228859,41.9024822 C45.2600839,41.953103 45.6020973,41.8539755 45.8602517,41.6317607 C46.118406,41.4093111 46.2668624,41.0856198 46.2668624,40.7447809 L46.2668624,25.1562742 L47.5414262,25.1562742 L47.5414262,44.4770963 C45.2159228,43.8664755 40.6337416,42.9609386 36.0560235,43.7447976 Z" id="Shape" fill-rule="nonzero"></path>
                </g>
            </g>
        </g>
    </g>
</svg>