<?xml version="1.0" encoding="UTF-8"?>
<svg width="65px" height="65px" viewBox="0 0 65 65" version="1.1" xmlns="http://www.w3.org/2000/svg" xmlns:xlink="http://www.w3.org/1999/xlink">
    <!-- Generator: Sketch 53.2 (72643) - https://sketchapp.com -->
    <title>Group 24</title>
    <desc>Created with Sketch.</desc>
    <g id="Page-1" stroke="none" stroke-width="1" fill="none" fill-rule="evenodd">
        <g id="Sales-Page-1" transform="translate(-361.000000, -150.000000)" fill="#29CBCA">
            <g id="Group-7" transform="translate(346.000000, 130.000000)">
                <g id="Group-18" transform="translate(15.000000, 20.000000)">
                    <g id="Group-24">
                        <circle id="Oval-Copy" opacity="0.146857" cx="32.5" cy="32.5" r="32.5"></circle>
                        <path d="M49.3027357,21 L15.6971959,21 C15.3121967,21 15,21.3139353 15,21.7012322 L15,40.1776235 C15,42.1552921 16.5996063,43.7642276 18.5659598,43.7642276 L46.4340402,43.7642276 C48.4003254,43.7642276 50,42.1552921 50,40.1776235 L50,21.7012322 C49.9999316,21.3139353 49.687735,21 49.3027357,21 Z M48.6055398,40.1775548 C48.6055398,41.3818672 47.6314206,42.3616258 46.4340402,42.3616258 L18.5659598,42.3616258 C17.3685794,42.3616258 16.3944602,41.3817984 16.3944602,40.1775548 L16.3944602,23.2311682 L32.0582968,36.1285046 C32.1868121,36.2342497 32.3433548,36.2871223 32.4999658,36.2871223 C32.6563034,36.2871223 32.812641,36.2343872 32.9410196,36.1289858 L45.0615233,26.1712692 C45.3597063,25.9262264 45.4040031,25.4845443 45.1604391,25.1845663 C44.9167384,24.8845883 44.477667,24.840035 44.1794157,25.0851466 L32.5004443,34.6800431 L17.5893797,22.4024643 L48.6055398,22.4024643 L48.6055398,40.1775548 Z" id="Shape" fill-rule="nonzero"></path>
                        <path d="M46.9870691,23.5558737 C46.7277489,23.2305588 46.2599826,23.1822425 45.9426556,23.4479822 L45.7199444,23.6343131 C45.4023991,23.9000528 45.3552367,24.3790404 45.6145569,24.7043553 C45.7612115,24.8883748 45.9746794,24.9837398 46.1898941,24.9837398 C46.3550352,24.9837398 46.5211952,24.9275199 46.6589704,24.8122468 L46.8816816,24.6259158 C47.1992269,24.3602507 47.2463893,23.8811886 46.9870691,23.5558737 Z" id="Path" fill-rule="nonzero"></path>
                    </g>
                </g>
            </g>
        </g>
    </g>
</svg>