<?xml version="1.0" encoding="UTF-8"?>
<svg width="144px" height="144px" viewBox="0 0 144 144" version="1.1" xmlns="http://www.w3.org/2000/svg" xmlns:xlink="http://www.w3.org/1999/xlink">
    <!-- Generator: Sketch 53.2 (72643) - https://sketchapp.com -->
    <title>Group 5</title>
    <desc>Created with Sketch.</desc>
    <g id="Page-1" stroke="none" stroke-width="1" fill="none" fill-rule="evenodd">
        <g id="Empty-States" transform="translate(-549.000000, -357.000000)">
            <g id="Group-5" transform="translate(549.000000, 357.000000)">
                <circle id="Oval-Copy-40" fill="#000000" opacity="0.0844494048" cx="72" cy="72" r="72"></circle>
                <g id="network-(1)" transform="translate(32.000000, 32.000000)" fill="#A6ADB2" fill-rule="nonzero">
                    <path d="M74.6666667,16 C71.7252317,16 69.3333333,18.3920546 69.3333333,21.3333333 C69.3333333,24.2746121 71.7253879,26.6666667 74.6666667,26.6666667 C77.6079454,26.6666667 80,24.2747683 80,21.3333333 C80,18.3920546 77.6079454,16 74.6666667,16 Z M74.6666667,24.0000781 C73.1960273,24.0000781 71.9999219,22.8041289 71.9999219,21.3333333 C71.9999219,19.862694 73.1958711,18.6665885 74.6666667,18.6665885 C76.1374623,18.6665885 77.3334115,19.8625377 77.3334115,21.3333333 C77.3332552,22.8041289 76.137306,24.0000781 74.6666667,24.0000781 Z" id="Shape"></path>
                    <path d="M5.33333333,60.1904762 C2.39205461,60.1904762 0,62.5825308 0,65.5238095 C0,68.4650882 2.39205461,70.8571429 5.33333333,70.8571429 C8.27476831,70.8571429 10.6666667,68.4650882 10.6666667,65.5238095 C10.6666667,62.5825308 8.27476831,60.1904762 5.33333333,60.1904762 Z M5.33333333,68.1905543 C3.86269397,68.1905543 2.66658854,66.9946051 2.66658854,65.5238095 C2.66658854,64.0530139 3.86253772,62.8570647 5.33333333,62.8570647 C6.8039727,62.8570647 8.00007813,64.0530139 8.00007813,65.5238095 C8.00007813,66.9946051 6.80412895,68.1905543 5.33333333,68.1905543 Z" id="Shape"></path>
                    <path d="M72.3725559,17.9875197 L60.6208073,12.3263988 C59.9423644,11.9987511 59.1291907,12.2841884 58.802261,12.9598722 C58.4753313,13.6353966 58.7599581,14.448224 59.4371239,14.7744382 L71.1888726,20.4355591 C71.3796348,20.527944 71.5812521,20.5714286 71.7799959,20.5714286 C72.2866731,20.5714286 72.7730767,20.2886991 73.0072592,19.8020857 C73.3341889,19.1265613 73.0495622,18.3137338 72.3725559,17.9875197 Z" id="Path"></path>
                    <path d="M60.1904762,69.3333333 C57.2490412,69.3333333 54.8571429,71.7253529 54.8571429,74.6665885 C54.8571429,77.6078242 57.2490412,80 60.1904762,80 C63.1319112,80 65.5238095,77.6079804 65.5238095,74.6667448 C65.5238095,71.7255092 63.1319112,69.3333333 60.1904762,69.3333333 Z M60.1904762,77.3332943 C58.7198368,77.3332943 57.5237314,76.1373626 57.5237314,74.6665885 C57.5237314,73.1958145 58.7198368,72.0000391 60.1904762,72.0000391 C61.6611156,72.0000391 62.857221,73.1959707 62.857221,74.6667448 C62.857221,76.1375189 61.6611156,77.3332943 60.1904762,77.3332943 Z" id="Shape"></path>
                    <path d="M57.8963094,71.3209203 L46.1446088,65.6599466 C45.4661687,65.3323075 44.6529983,65.6164631 44.32607,66.2934035 C43.9991416,66.9689104 44.2837672,67.7817167 44.9609303,68.1079223 L56.7126309,73.768896 C56.9033923,73.8612784 57.1050088,73.9047619 57.3037518,73.9047619 C57.8104269,73.9047619 58.2968285,73.6220397 58.5311697,73.1354391 C58.8579384,72.4597729 58.5733128,71.6471259 57.8963094,71.3209203 Z" id="Path"></path>
                    <path d="M39.6190476,35.8095238 C36.6776126,35.8095238 34.2857143,38.2015784 34.2857143,41.1428571 C34.2857143,44.0842921 36.6777689,46.4761905 39.6190476,46.4761905 C42.5604826,46.4761905 44.952381,44.0841359 44.952381,41.1428571 C44.952381,38.2015784 42.5604826,35.8095238 39.6190476,35.8095238 Z M39.6190476,43.8096019 C38.1484083,43.8096019 36.9523028,42.6136528 36.9523028,41.1428571 C36.9523028,39.6722178 38.148252,38.4761124 39.6190476,38.4761124 C41.089687,38.4761124 42.2857924,39.6720615 42.2857924,41.1428571 C42.2857924,42.6136528 41.089687,43.8096019 39.6190476,43.8096019 Z" id="Shape"></path>
                    <path d="M37.5848982,37.9075696 L28.806354,30.7670477 C28.2287243,30.3011114 27.3969747,30.4047968 26.9464824,31.0076302 C26.4973873,31.6104636 26.5993768,32.4785048 27.1770065,32.9486533 L35.9555507,40.0891752 C36.1980279,40.2855294 36.4841262,40.3809524 36.7689826,40.3809524 C37.1637454,40.3809524 37.5532303,40.1985309 37.8154223,39.8487547 C38.2645174,39.2457593 38.162528,38.377556 37.5848982,37.9075696 Z" id="Path"></path>
                    <path d="M63.6190476,34.2857143 C55.4273356,34.2857143 48.7619048,40.9511452 48.7619048,49.1428571 C48.7619048,57.3345691 55.4273356,64 63.6190476,64 C71.8107596,64 78.4761905,57.3345691 78.4761905,49.1428571 C78.4761905,40.9511452 71.8107596,34.2857143 63.6190476,34.2857143 Z M63.6190476,61.2984999 C56.9157881,61.2984999 51.4632466,55.8459583 51.4632466,49.1426989 C51.4632466,42.4394394 56.9157881,36.9868979 63.6190476,36.9868979 C70.3223071,36.9868979 75.7748486,42.4394394 75.7748486,49.1426989 C75.7748486,55.8459583 70.3223071,61.2984999 63.6190476,61.2984999 Z" id="Shape"></path>
                    <path d="M64,39.6190476 C61.058565,39.6190476 58.6666667,42.0111022 58.6666667,44.952381 C58.6666667,47.8938159 61.0587213,50.2857143 64,50.2857143 C66.941435,50.2857143 69.3333333,47.8936597 69.3333333,44.952381 C69.3333333,42.0111022 66.941435,39.6190476 64,39.6190476 Z M64,47.6191257 C62.5293606,47.6191257 61.3332552,46.4231766 61.3332552,44.952381 C61.3332552,43.4817416 62.5292044,42.2856362 64,42.2856362 C65.4706394,42.2856362 66.6667448,43.4815853 66.6667448,44.952381 C66.6667448,46.4231766 65.4706394,47.6191257 64,47.6191257 Z" id="Shape"></path>
                    <path d="M67.4870164,53.3333333 L59.7510789,53.3333333 C57.4724851,53.3333333 55.6190476,55.137387 55.6190476,57.3533137 L55.6190476,60.867984 C55.6190476,61.3439192 55.8723289,61.7839171 56.2843601,62.0226659 C58.5190476,63.3159408 61.0549851,64 63.6190476,64 C66.1831101,64 68.7190476,63.3159408 70.9537351,62.0226659 C71.3657664,61.7853233 71.6190476,61.3439192 71.6190476,60.8693903 L71.6190476,57.3547199 C71.6190476,55.137387 69.7657664,53.3333333 67.4870164,53.3333333 Z M68.9523289,60.0733004 C65.6337351,61.7265736 61.6043601,61.7265736 58.2856101,60.0733004 L58.2856101,57.3547199 C58.2856101,56.6080048 58.9429539,56.0000391 59.7509226,56.0000391 L67.4868601,56.0000391 C68.2948289,56.0000391 68.9521726,56.6080048 68.9521726,57.3547199 L68.9521726,60.0733004 L68.9523289,60.0733004 Z" id="Shape"></path>
                    <path d="M31.6190476,51.047619 C23.4273356,51.047619 16.7619048,57.542176 16.7619048,65.5238866 C16.7619048,73.5055972 23.4273356,80 31.6190476,80 C39.8107596,80 46.4761905,73.505443 46.4761905,65.5237324 C46.4761905,57.5420218 39.8107596,51.047619 31.6190476,51.047619 Z M31.6190476,77.3679093 C24.9157881,77.3679093 19.4632466,72.0551482 19.4632466,65.5237324 C19.4632466,58.9923166 24.9157881,53.6795555 31.6190476,53.6795555 C38.3223071,53.6795555 43.7748486,58.9923166 43.7748486,65.5237324 C43.7748486,72.0551482 38.3223071,77.3679093 31.6190476,77.3679093 Z" id="Shape"></path>
                    <path d="M32,55.6190476 C29.058565,55.6190476 26.6666667,58.0111022 26.6666667,60.952381 C26.6666667,63.8938159 29.0587213,66.2857143 32,66.2857143 C34.9412787,66.2857143 37.3333333,63.8936597 37.3333333,60.952381 C37.3333333,58.0111022 34.941435,55.6190476 32,55.6190476 Z M32,63.6191257 C30.5293606,63.6191257 29.3332552,62.4231766 29.3332552,60.952381 C29.3332552,59.4817416 30.5292044,58.2856362 32,58.2856362 C33.4706394,58.2856362 34.6667448,59.4815853 34.6667448,60.952381 C34.6667448,62.4231766 33.4706394,63.6191257 32,63.6191257 Z" id="Shape"></path>
                    <path d="M35.4870164,69.3333333 L27.7510789,69.3333333 C25.4724851,69.3333333 23.6190476,71.137387 23.6190476,73.3533137 L23.6190476,76.867984 C23.6190476,77.3439192 23.8723289,77.7839171 24.2843601,78.0226659 C26.5190476,79.3159408 29.0549851,80 31.6190476,80 C34.1831101,80 36.7190476,79.3159408 38.9537351,78.0226659 C39.3657664,77.7853233 39.6190476,77.3440755 39.6190476,76.8693903 L39.6190476,73.3547199 C39.6190476,71.137387 37.7657664,69.3333333 35.4870164,69.3333333 Z M36.9523289,76.0733004 C33.6335789,77.7265736 29.6043601,77.7265736 26.2856101,76.0733004 L26.2856101,73.3547199 C26.2856101,72.6080048 26.9429539,72.0000391 27.7509226,72.0000391 L35.4868601,72.0000391 C36.2948289,72.0000391 36.9521726,72.6080048 36.9521726,73.3547199 L36.9521726,76.0733004 L36.9523289,76.0733004 Z" id="Shape"></path>
                    <path d="M14.8571429,17.5238095 C6.66543088,17.5238095 0,24.1892404 0,32.3809524 C0,40.5726644 6.66543088,47.2380952 14.8571429,47.2380952 C23.0488548,47.2380952 29.7142857,40.5726644 29.7142857,32.3809524 C29.7141274,24.1892404 23.0486966,17.5238095 14.8571429,17.5238095 Z M14.8571429,44.5367534 C8.15388338,44.5367534 2.70134187,39.0842119 2.70134187,32.3809524 C2.70134187,25.6776929 8.15388338,20.2251514 14.8571429,20.2251514 C21.5604023,20.2251514 27.0129438,25.6776929 27.0129438,32.3809524 C27.0129438,39.0842119 21.5604023,44.5367534 14.8571429,44.5367534 Z" id="Shape"></path>
                    <path d="M14.4761905,22.8571429 C11.5347555,22.8571429 9.14285714,25.2491975 9.14285714,28.1904762 C9.14285714,31.1317549 11.5349118,33.5238095 14.4761905,33.5238095 C17.4176255,33.5238095 19.8095238,31.1317549 19.8095238,28.1904762 C19.8095238,25.2491975 17.4174692,22.8571429 14.4761905,22.8571429 Z M14.4761905,30.857221 C13.0055511,30.857221 11.8094457,29.6612718 11.8094457,28.1904762 C11.8094457,26.7196806 13.0053949,25.5237314 14.4761905,25.5237314 C15.9468298,25.5237314 17.1429353,26.7196806 17.1429353,28.1904762 C17.1429353,29.6612718 15.9468298,30.857221 14.4761905,30.857221 Z" id="Shape"></path>
                    <path d="M18.7251116,35.8095238 L10.9891741,35.8095238 C8.71058036,35.8095238 6.85714286,37.6135775 6.85714286,39.8295042 L6.85714286,43.3441745 C6.85714286,43.8201097 7.11042411,44.2601075 7.52245536,44.4988564 C9.75714286,45.7921313 12.2930804,46.4761905 14.8571429,46.4761905 C17.4212054,46.4761905 19.9571429,45.7921313 22.1918304,44.4988564 C22.6038616,44.2615138 22.8571429,43.8201097 22.8571429,43.3455808 L22.8571429,39.8309104 C22.8571429,37.6135775 21.0037054,35.8095238 18.7251116,35.8095238 Z M20.1904241,42.5494909 C16.8718304,44.2027641 12.8424554,44.2027641 9.52370536,42.5494909 L9.52370536,39.8309104 C9.52370536,39.0841953 10.1810491,38.4762295 10.9890179,38.4762295 L18.7249554,38.4762295 C19.5329241,38.4762295 20.1902679,39.0841953 20.1902679,39.8309104 L20.1902679,42.5494909 L20.1904241,42.5494909 Z" id="Shape"></path>
                    <path d="M46.8571429,0 C38.6654309,0 32,6.66543088 32,14.8571429 C32,23.0488548 38.6654309,29.7142857 46.8571429,29.7142857 C55.0488548,29.7142857 61.7142857,23.0488548 61.7142857,14.8571429 C61.7141274,6.66543088 55.0486966,0 46.8571429,0 Z M46.8571429,27.0129438 C40.1538834,27.0129438 34.7013419,21.5604023 34.7013419,14.8571429 C34.7013419,8.15388338 40.1538834,2.70134187 46.8571429,2.70134187 C53.5604023,2.70134187 59.0129438,8.15388338 59.0129438,14.8571429 C59.0129438,21.5604023 53.5604023,27.0129438 46.8571429,27.0129438 Z" id="Shape"></path>
                    <path d="M46.4761905,5.33333333 C43.5347555,5.33333333 41.1428571,7.72538794 41.1428571,10.6666667 C41.1428571,13.6079454 43.5349118,16 46.4761905,16 C49.4174692,16 51.8095238,13.6081016 51.8095238,10.6668229 C51.8095238,7.72554419 49.4174692,5.33333333 46.4761905,5.33333333 Z M46.4761905,13.3334115 C45.0055511,13.3334115 43.8094457,12.1374623 43.8094457,10.6666667 C43.8094457,9.1960273 45.0053949,7.99992187 46.4761905,7.99992187 C47.9469861,7.99992187 49.1429353,9.19587105 49.1429353,10.6666667 C49.142779,12.1374623 47.9468298,13.3334115 46.4761905,13.3334115 Z" id="Shape"></path>
                    <path d="M50.7251116,19.047619 L42.9891741,19.047619 C40.7105804,19.047619 38.8571429,20.8516727 38.8571429,23.0675994 L38.8571429,26.5822698 C38.8571429,27.0582049 39.1104241,27.4982028 39.5224554,27.7369516 C41.7571429,29.0302266 44.2930804,29.7142857 46.8571429,29.7142857 C49.4212054,29.7142857 51.9571429,29.0302266 54.1918304,27.7369516 C54.6038616,27.499609 54.8571429,27.0582049 54.8571429,26.583676 L54.8571429,23.0690057 C54.8571429,20.8515165 53.0037054,19.047619 50.7251116,19.047619 Z M52.1904241,25.7875861 C48.8718304,27.4408593 44.8424554,27.4408593 41.5237054,25.7875861 L41.5237054,23.0690057 C41.5237054,22.3222906 42.1810491,21.7143248 42.9890179,21.7143248 L50.7249554,21.7143248 C51.5329241,21.7143248 52.1902679,22.3222906 52.1902679,23.0690057 L52.1902679,25.7875861 L52.1904241,25.7875861 Z" id="Shape"></path>
                    <path d="M34.7197176,13.4217379 C34.2297365,12.8594767 33.3683104,12.7921693 32.7949861,13.2751433 L23.3351352,21.2516236 C22.7618109,21.73444 22.6949444,22.5832701 23.1849255,23.148211 C23.455271,23.458897 23.8374339,23.6190476 24.2223162,23.6190476 C24.5363328,23.6190476 24.8516292,23.5128059 25.1096571,23.2948056 L34.5695079,15.3183253 C35.1429922,14.8355089 35.2098587,13.9866788 34.7197176,13.4217379 Z" id="Path"></path>
                    <path d="M63.7333736,35.2621158 L55.7333393,24.8988935 C55.2919312,24.3250734 54.4559901,24.2122828 53.8666126,24.6397636 C53.2772351,25.0686107 53.1586408,25.8807636 53.5998927,26.4520031 L61.5999269,36.8152254 C61.8625843,37.1546597 62.262586,37.3333333 62.6679003,37.3333333 C62.9452452,37.3333333 63.2266527,37.249082 63.4666537,37.0742034 C64.0560312,36.6455082 64.1747817,35.8333553 63.7333736,35.2621158 Z" id="Path"></path>
                    <path d="M52.3103344,53.8750445 C51.8780852,53.2763481 51.0594893,53.1558787 50.4823409,53.6041074 L43.1888808,59.2777562 C42.6117324,59.7261437 42.4955989,60.5753022 42.9276951,61.1725702 C43.1849025,61.5274708 43.5766045,61.7142857 43.9735088,61.7142857 C44.2463231,61.7142857 44.5205145,61.6249257 44.7556887,61.4433486 L52.0491488,55.7696998 C52.6262972,55.3216297 52.7425837,54.4723125 52.3103344,53.8750445 Z" id="Path"></path>
                    <path d="M18.4552205,64 L8.9735097,64 C8.22588092,64 7.61904762,64.5108235 7.61904762,65.1428571 C7.61904762,65.7748908 8.22588092,66.2857143 8.9735097,66.2857143 L18.4550617,66.2857143 C19.2026905,66.2857143 19.8095238,65.7748908 19.8095238,65.1428571 C19.8095238,64.5108235 19.2028492,64 18.4552205,64 Z" id="Path"></path>
                    <path d="M14.4763467,0 C11.5349118,0 9.14285714,2.39205461 9.14285714,5.33333333 C9.14285714,8.27476831 11.5349118,10.6666667 14.4761905,10.6666667 C17.4176255,10.6666667 19.8095238,8.27461206 19.8095238,5.33333333 C19.8096801,2.39205461 17.4176255,0 14.4763467,0 Z M14.4763467,8.00007813 C13.0057074,8.00007813 11.8096019,6.80412895 11.8096019,5.33333333 C11.8096019,3.86269397 13.0055511,2.66658854 14.4763467,2.66658854 C15.9469861,2.66658854 17.1430915,3.86253772 17.1430915,5.33333333 C17.1429353,6.80412895 15.9469861,8.00007813 14.4763467,8.00007813 Z" id="Shape"></path>
                    <path d="M14.8571429,7.61904762 C14.2263146,7.61904762 13.7142857,8.22445233 13.7142857,8.9735097 L13.7142857,18.4550617 C13.7142857,19.2041191 14.2263146,19.8095238 14.8571429,19.8095238 C15.4879711,19.8095238 16,19.2041191 16,18.4550617 L16,8.9735097 C16,8.22445233 15.4879711,7.61904762 14.8571429,7.61904762 Z" id="Path"></path>
                </g>
            </g>
        </g>
    </g>
</svg>