<?xml version="1.0" encoding="UTF-8"?>
<svg width="50px" height="29px" viewBox="0 0 50 29" version="1.1" xmlns="http://www.w3.org/2000/svg" xmlns:xlink="http://www.w3.org/1999/xlink">
    <!-- Generator: Sketch 53.2 (72643) - https://sketchapp.com -->
    <title>sunrise (1) copy 4</title>
    <desc>Created with Sketch.</desc>
    <g id="Page-1" stroke="none" stroke-width="1" fill="none" fill-rule="evenodd">
        <g id="sunrise-(1)-copy-4" fill-rule="nonzero">
            <g id="sunrise-(1)-copy-3">
                <path d="M39.7296875,6.77636719 L35.3107422,11.1959961 C34.9049805,11.6026367 34.9049805,12.2618164 35.3107422,12.6683594 C35.7166016,13.0757812 36.3773437,13.0757812 36.7847656,12.6683594 L41.2036133,8.24960937 C41.6094727,7.84296875 41.6094727,7.18300781 41.2036133,6.77636719 C40.7977539,6.36972656 40.1371094,6.36972656 39.7296875,6.77636719 Z" id="Path" fill="#DE9021"></path>
                <path d="M23.9578125,1.10644531 L23.9578125,7.35625 C23.9578125,7.93154297 24.4239258,8.39765625 24.9992188,8.39765625 C25.5745117,8.39765625 26.040625,7.93154297 26.040625,7.35625 L26.040625,1.10644531 C26.040625,0.53125 25.5745117,0.0643554687 24.9992188,0.0643554687 C24.4239258,0.0643554687 23.9578125,0.53125 23.9578125,1.10644531 Z" id="Path" fill="#DE9021"></path>
                <g id="Group" transform="translate(8.398438, 6.445312)">
                    <path d="M0.397265625,1.80429687 L4.81601562,6.22382812 C5.22265625,6.63046875 5.88261719,6.63046875 6.28925781,6.22382812 C6.69589844,5.81728516 6.69589844,5.15732422 6.28925781,4.75068359 L1.86962891,0.331054687 C1.46298828,-0.0755859375 0.80390625,-0.0755859375 0.397265625,0.331054687 C-0.01015625,0.737792969 -0.01015625,1.39765625 0.397265625,1.80429687 Z" id="Path" fill="#DE9021"></path>
                    <path d="M5.12128906,20.5362305 C5.12128906,14.2055664 10.2708984,9.05585937 16.6008789,9.05585937 C22.9301758,9.05585937 28.08125,14.2054687 28.08125,20.5362305 C28.08125,21.978125 28.6,19.3773438 28.08125,20.7016602 L5.12128906,20.5362305 Z" id="Path" fill="#F6BB42"></path>
                </g>
                <path d="M24.9992188,14.4589844 C18.084082,14.4589844 12.4782227,20.0649414 12.4782227,26.9814453 L37.3984375,26.9814453 C38.1248047,25.3960937 37.5202148,28.8399414 37.5202148,26.9814453 C37.5202148,20.0650391 31.9143555,14.4589844 24.9992188,14.4589844 Z M14.5610352,26.981543 C14.5610352,24.1922852 15.646582,21.5708984 17.61875,19.5996094 C19.5902344,17.628125 22.2107422,16.5425781 24.9992188,16.5425781 C27.7884766,16.5425781 30.4083984,17.628125 32.3796875,19.5996094 C34.3525391,21.5708984 35.4374023,24.1922852 35.4374023,26.981543 L14.5610352,26.981543 Z" id="Shape" fill="#DE9021"></path>
                <path d="M48.9578125,26.1063477 L1.04140625,26.1063477 C0.466113281,26.1063477 0,26.5717773 0,27.1469727 C0,27.722168 0.466113281,28.1875977 1.04140625,28.1875977 L48.9578125,28.1875977 C49.531543,28.1875977 49.9984375,27.722168 49.9984375,27.1469727 C49.9984375,26.5717773 49.531543,26.1063477 48.9578125,26.1063477 Z" id="Path" fill="#797979"></path>
            </g>
        </g>
    </g>
</svg>