<svg xmlns="http://www.w3.org/2000/svg" viewBox="0 0 348 240" width="348" height="240" preserveAspectRatio="xMidYMid meet" style="width: 100%; height: 100%;"><defs><clipPath id="animationMask_tU92GUk6T5"><rect width="348" height="240" x="0" y="0"></rect></clipPath></defs><g clip-path="url(#animationMask_tU92GUk6T5)"><g transform="matrix(1,0,0,1,174,198)" opacity="1" style="user-select: none;"><g opacity="1" transform="matrix(2,0,0,2,0,0)"><path fill="rgb(255,255,255)" fill-opacity="1" d="M0 0 M87,-21 C87,-21 87,21 87,21 C87,21 -87,21 -87,21 C-87,21 -87,-21 -87,-21 C-87,-21 87,-21 87,-21z"></path></g></g><g transform="matrix(1,0,0,1,-58.3027,175.766)" opacity="1" style="user-select: none;"><g opacity="1" transform="matrix(2,0,0,2,0,0)"><path stroke-linecap="butt" stroke-linejoin="miter" fill-opacity="0" stroke-miterlimit="4" stroke="rgb(0,145,231)" stroke-opacity="1" stroke-width="1" d="M0 0 M-24.942,0 C-24.942,0 -20.582,-1.88 -15.282,-1.88 C-9.982,-1.88 -8.751999999999999,0 -4.002,0 C0.758,0 -2.8819999999999997,-2.53 4.168,-1.88 C11.228,-1.23 13.638,1.63 17.168,1.95 C20.708,2.27 24.938,0 24.938,0"></path></g></g><g transform="matrix(1,0,0,1,-42.1246,209.98)" opacity="1" style="user-select: none;"><g opacity="1" transform="matrix(2,0,0,2,0,0)"><path stroke-linecap="butt" stroke-linejoin="miter" fill-opacity="0" stroke-miterlimit="4" stroke="rgb(0,145,231)" stroke-opacity="1" stroke-width="1" d="M0 0 M-24.942,0 C-24.942,0 -20.582,-1.88 -15.282,-1.88 C-9.982,-1.88 -8.751999999999999,0 -4.002,0 C0.758,0 -2.8819999999999997,-2.53 4.168,-1.88 C11.228,-1.23 13.638,1.63 17.168,1.95 C20.708,2.27 24.938,0 24.938,0"></path></g></g><g transform="matrix(1,0,0,1,170.7159,169.98)" opacity="1" style="user-select: none;"><g opacity="1" transform="matrix(2,0,0,2,0,0)"><path stroke-linecap="butt" stroke-linejoin="miter" fill-opacity="0" stroke-miterlimit="4" stroke="rgb(0,145,231)" stroke-opacity="1" stroke-width="1" d="M0 0 M-24.942,0 C-24.942,0 -20.582,-1.88 -15.282,-1.88 C-9.982,-1.88 -8.751999999999999,0 -4.002,0 C0.758,0 -2.8819999999999997,-2.53 4.168,-1.88 C11.228,-1.23 13.638,1.63 17.168,1.95 C20.708,2.27 24.938,0 24.938,0"></path></g></g><g transform="matrix(1,0,0,1,59.2539,160)" opacity="1" style="user-select: none;"><g opacity="1" transform="matrix(2,0,0,2,0,0)"><path stroke-linecap="butt" stroke-linejoin="miter" fill-opacity="0" stroke-miterlimit="4" stroke="rgb(0,145,231)" stroke-opacity="1" stroke-width="1" d="M0 0 M-19,0 C-19,0 -15.68,-1.89 -11.64,-1.89 C-7.61,-1.89 -6.67,0 -3.05,0 C0.5800000000000001,0 -2.19,-2.55 3.18,-1.89 C8.55,-1.2399999999999998 10.39,1.64 13.08,1.96 C15.77,2.28 19,0 19,0"></path></g></g><g transform="matrix(1,0,0,1,563.2302,169.98)" opacity="1" style="user-select: none;"><g opacity="1" transform="matrix(2,0,0,2,0,0)"><path stroke-linecap="butt" stroke-linejoin="miter" fill-opacity="0" stroke-miterlimit="4" stroke="rgb(0,145,231)" stroke-opacity="1" stroke-width="1" d="M0 0 M-24.942,0 C-24.942,0 -20.582,-1.88 -15.282,-1.88 C-9.982,-1.88 -8.751999999999999,0 -4.002,0 C0.758,0 -2.8819999999999997,-2.53 4.168,-1.88 C11.228,-1.23 13.638,1.63 17.168,1.95 C20.708,2.27 24.938,0 24.938,0"></path></g></g><g transform="matrix(1,0,0,1,428.9453,160)" opacity="1" style="user-select: none;"><g opacity="1" transform="matrix(2,0,0,2,0,0)"><path stroke-linecap="butt" stroke-linejoin="miter" fill-opacity="0" stroke-miterlimit="4" stroke="rgb(0,145,231)" stroke-opacity="1" stroke-width="1" d="M0 0 M-19,0 C-19,0 -15.68,-1.89 -11.64,-1.89 C-7.61,-1.89 -6.67,0 -3.05,0 C0.5800000000000001,0 -2.19,-2.55 3.18,-1.89 C8.55,-1.2399999999999998 10.39,1.64 13.08,1.96 C15.77,2.28 19,0 19,0"></path></g></g><g transform="matrix(1,0,0,1,482.9453,194)" opacity="1" style="user-select: none;"><g opacity="1" transform="matrix(2,0,0,2,0,0)"><path stroke-linecap="butt" stroke-linejoin="miter" fill-opacity="0" stroke-miterlimit="4" stroke="rgb(0,145,231)" stroke-opacity="1" stroke-width="1" d="M0 0 M-20,0 C-20,0 -16.509999999999998,-1.89 -12.26,-1.89 C-8.01,-1.89 -7.02,0 -3.21,0 C0.6099999999999999,0 -2.31,-2.55 3.35,-1.89 C9,-1.2399999999999998 10.94,1.64 13.77,1.96 C16.6,2.28 20,0 20,0"></path></g></g><g transform="matrix(1,0,0,1,276.4264,175.766)" opacity="1" style="user-select: none;"><g opacity="1" transform="matrix(2,0,0,2,0,0)"><path stroke-linecap="butt" stroke-linejoin="miter" fill-opacity="0" stroke-miterlimit="4" stroke="rgb(0,145,231)" stroke-opacity="1" stroke-width="1" d="M0 0 M-24.942,0 C-24.942,0 -20.582,-1.88 -15.282,-1.88 C-9.982,-1.88 -8.751999999999999,0 -4.002,0 C0.758,0 -2.8819999999999997,-2.53 4.168,-1.88 C11.228,-1.23 13.638,1.63 17.168,1.95 C20.708,2.27 24.938,0 24.938,0"></path></g></g><g transform="matrix(1,0,0,1,340.8283,209.98)" opacity="1" style="user-select: none;"><g opacity="1" transform="matrix(2,0,0,2,0,0)"><path stroke-linecap="butt" stroke-linejoin="miter" fill-opacity="0" stroke-miterlimit="4" stroke="rgb(0,145,231)" stroke-opacity="1" stroke-width="1" d="M0 0 M-24.942,0 C-24.942,0 -20.582,-1.88 -15.282,-1.88 C-9.982,-1.88 -8.751999999999999,0 -4.002,0 C0.758,0 -2.8819999999999997,-2.53 4.168,-1.88 C11.228,-1.23 13.638,1.63 17.168,1.95 C20.708,2.27 24.938,0 24.938,0"></path></g></g><g></g><g transform="matrix(0.991,-0.134,0.134,0.991,175.0298,170.5942)" opacity="1" style="user-select: none;"><g opacity="1" transform="matrix(1.9951,-0.1395,0.1395,1.9951,0,0)"><path fill="rgb(239,248,242)" fill-opacity="1" d="M0 0 M-28.93,-9.5 C-35.07,-9.5 -22.78,9.5 0.06,9.5 C22.91,9.5 34.83,-9.5 29.05,-9.5 C23.28,-9.5 -22.78,-9.5 -28.93,-9.5z"></path><path stroke-linecap="butt" stroke-linejoin="miter" fill-opacity="0" stroke-miterlimit="4" stroke="rgb(0,145,231)" stroke-opacity="1" stroke-width="2" d="M0 0 M-28.93,-9.5 C-35.07,-9.5 -22.78,9.5 0.06,9.5 C22.91,9.5 34.83,-9.5 29.05,-9.5 C23.28,-9.5 -22.78,-9.5 -28.93,-9.5z"></path></g></g><g transform="matrix(0.991,-0.134,0.134,0.991,191.6063,98.4948)" opacity="1" style="user-select: none;"><g opacity="1" transform="matrix(2,0,0,2,0,0)"><path fill="rgb(255,255,255)" fill-opacity="1" d="M0 0 M-14.464,22.884 C-14.464,22.884 -12.554,-15.686 -14.464,-22.206 C-16.384,-28.726 17.986,13.613999999999999 14.266,15.344 C10.536,17.073999999999998 -14.464,22.884 -14.464,22.884z"></path><path stroke-linecap="butt" stroke-linejoin="miter" fill-opacity="0" stroke-miterlimit="4" stroke="rgb(0,145,231)" stroke-opacity="1" stroke-width="2" d="M0 0 M-14.464,22.884 C-14.464,22.884 -12.554,-15.686 -14.464,-22.206 C-16.384,-28.726 17.986,13.613999999999999 14.266,15.344 C10.536,17.073999999999998 -14.464,22.884 -14.464,22.884z"></path></g></g><g transform="matrix(-0.991,0.134,0.134,0.991,144.4125,123.27)" opacity="1" style="user-select: none;"><g opacity="1" transform="matrix(2,0,0,2,0,0)"><path fill="rgb(255,255,255)" fill-opacity="1" d="M0 0 M-6.47,14 C-6.47,14 -5.609999999999999,-9.59 -6.47,-13.58 C-7.319999999999999,-17.57 8.04,8.33 6.37,9.39 C4.71,10.440000000000001 -6.47,14 -6.47,14z"></path><path stroke-linecap="butt" stroke-linejoin="miter" fill-opacity="0" stroke-miterlimit="4" stroke="rgb(0,145,231)" stroke-opacity="1" stroke-width="2" d="M0 0 M-6.47,14 C-6.47,14 -5.609999999999999,-9.59 -6.47,-13.58 C-7.319999999999999,-17.57 8.04,8.33 6.37,9.39 C4.71,10.440000000000001 -6.47,14 -6.47,14z"></path></g></g><g></g><g transform="matrix(0.8672,0,0,0.5,162.123,189.156)" opacity="1" style="user-select: none;"><g opacity="1" transform="matrix(2,0,0,2,0,0)"><path fill="rgb(255,255,255)" fill-opacity="1" d="M0 0 M-26.359,-4 C-26.359,-4 26.361,-4 26.361,-4 C26.361,-4 19.421,4 19.421,4 C19.421,4 -14.029,4 -14.029,4 C-14.029,4 -26.359,-4 -26.359,-4z"></path></g></g><g transform="matrix(1,0,0,1,146.6087,194)" opacity="1" style="user-select: none;"><g opacity="1" transform="matrix(2,0,0,2,0,0)"><path stroke-linecap="butt" stroke-linejoin="miter" fill-opacity="0" stroke-miterlimit="4" stroke="rgb(0,145,231)" stroke-opacity="1" stroke-width="1" d="M0 0 M-20,0 C-20,0 -16.509999999999998,-1.89 -12.26,-1.89 C-8.01,-1.89 -7.02,0 -3.21,0 C0.6099999999999999,0 -2.31,-2.55 3.35,-1.89 C9,-1.2399999999999998 10.94,1.64 13.77,1.96 C16.6,2.28 20,0 20,0"></path></g></g></g></svg>