<?xml version="1.0" encoding="UTF-8"?>
<svg width="144px" height="144px" viewBox="0 0 144 144" version="1.1" xmlns="http://www.w3.org/2000/svg" xmlns:xlink="http://www.w3.org/1999/xlink">
    <!-- Generator: Sketch 53.2 (72643) - https://sketchapp.com -->
    <title>Group 2</title>
    <desc>Created with Sketch.</desc>
    <g id="Page-1" stroke="none" stroke-width="1" fill="none" fill-rule="evenodd">
        <g id="Empty-States" transform="translate(-419.000000, -104.000000)">
            <g id="Group-2" transform="translate(419.000000, 104.000000)">
                <circle id="Oval-Copy-38" fill="#000000" opacity="0.0844494048" cx="72" cy="72" r="72"></circle>
                <g id="edit-(2)-copy" transform="translate(32.000000, 33.000000)" fill="#79858D" fill-rule="nonzero" opacity="0.59702846">
                    <path d="M73.6168712,49.3873502 C72.5295603,49.3873502 71.6483311,50.2701536 71.6483311,51.3594064 L71.6483311,68.8691079 C71.6444862,72.1353258 69.0031054,74.7821949 65.742711,74.7852762 L10.5074765,74.7852762 C7.24708207,74.7821949 4.60570113,72.1353258 4.60185638,68.8691079 L4.60185638,17.4793282 C4.60570113,14.2138806 7.24708207,11.5670115 10.5074765,11.5631599 L27.9859589,11.5631599 C29.0732698,11.5631599 29.954499,10.6803565 29.954499,9.59110374 C29.954499,8.50262125 29.0732698,7.61904762 27.9859589,7.61904762 L10.5074765,7.61904762 C5.0739985,7.62521029 0.670927973,12.0361451 0.664776285,17.4793282 L0.664776285,68.8698781 C0.670927973,74.3130613 5.0739985,78.7239961 10.5074765,78.7301587 L65.742711,78.7301587 C71.176189,78.7239961 75.5792595,74.3130613 75.5854112,68.8698781 L75.5854112,51.3594064 C75.5854112,50.2701536 74.7041819,49.3873502 73.6168712,49.3873502 Z" id="Path"></path>
                    <path d="M74.5453564,2.56743099 C71.1218112,-0.855810331 65.5713911,-0.855810331 62.1478458,2.56743099 L27.3934201,37.3187723 C27.1552406,37.5569306 26.9832642,37.8521559 26.8934714,38.1762947 L22.3231641,54.6746599 C22.1352076,55.3510905 22.3262077,56.0754572 22.8223518,56.572318 C23.3192567,57.0684179 24.0436877,57.2594012 24.7201783,57.0722223 L41.2200079,52.5015597 C41.5441755,52.4117747 41.8394268,52.2398137 42.0776064,52.0016552 L76.8312711,17.2495531 C80.2494897,13.8240291 80.2494897,8.27866702 76.8312711,4.85314279 L74.5453564,2.56743099 Z M31.638038,38.5848922 L60.0818476,10.142846 L69.2551837,19.3153679 L40.810613,47.7574142 L31.638038,38.5848922 Z M29.8056537,42.2615099 L37.1344301,49.5903967 L26.9969615,52.3988396 L29.8056537,42.2615099 Z M74.0766069,14.4951334 L72.0106089,16.5609482 L62.836512,7.38766547 L64.9032708,5.32185067 C66.8049023,3.42038798 69.8882999,3.42038798 71.7899313,5.32185067 L74.0766069,7.60756246 C75.9751945,9.51130787 75.9751945,12.5921491 74.0766069,14.4951334 L74.0766069,14.4951334 Z" id="Shape"></path>
                </g>
            </g>
        </g>
    </g>
</svg>