<?xml version="1.0" encoding="UTF-8"?>
<svg width="17px" height="20px" viewBox="0 0 17 20" version="1.1" xmlns="http://www.w3.org/2000/svg" xmlns:xlink="http://www.w3.org/1999/xlink">
    <!-- Generator: Sketch 55.2 (78181) - https://sketchapp.com -->
    <title>Group 71</title>
    <desc>Created with Sketch.</desc>
    <g id="Page-1" stroke="none" stroke-width="1" fill="none" fill-rule="evenodd">
        <g id="Group-71" transform="translate(-2.000000, 0.000000)">
            <rect id="Rectangle" x="0" y="0" width="20" height="20"></rect>
            <g id="notification-(2)" transform="translate(2.000000, 0.000000)" fill="#74849A" fill-rule="nonzero">
                <path d="M16.9397083,16.3871665 L15.4802145,14.0703146 C14.8061514,13.0009487 14.4499742,11.7761166 14.4499742,10.5294653 L14.4499742,8.49998103 C14.4499742,5.93784389 12.6547039,3.77076614 10.1997946,3.072136 L10.1997946,1.61905665 C10.1997946,0.726141236 9.43731479,0 8.49971483,0 C7.56211487,0 6.79963504,0.726141236 6.79963504,1.61905665 L6.79963504,3.072136 C4.34476557,3.77076614 2.54949534,5.93784389 2.54949534,8.49998103 L2.54949534,10.5294653 C2.54949534,11.7761166 2.19331813,13.0001138 1.52009179,14.0695177 L0.0605979801,16.3863697 C-0.0184551124,16.5118582 -0.0201684607,16.6672865 0.0554977806,16.7943688 C0.131164022,16.9214511 0.271419509,17 0.424425494,17 L16.575044,17 C16.72805,17 16.8691422,16.921489 16.9448085,16.7952036 C17.0204747,16.6688802 17.0179246,16.5118203 16.9397083,16.3871665 Z" id="Path"></path>
                <path d="M6,18 C6.4477623,19.1780064 7.39568463,20 8.49998139,20 C9.60427815,20 10.5522377,19.1780064 11,18 L6,18 L6,18 Z" id="Path"></path>
            </g>
        </g>
    </g>
</svg>