<?xml version="1.0" encoding="UTF-8"?>
<svg width="512px" height="338px" viewBox="0 0 512 338" version="1.1" xmlns="http://www.w3.org/2000/svg" xmlns:xlink="http://www.w3.org/1999/xlink">
    <!-- Generator: Sketch 53.2 (72643) - https://sketchapp.com -->
    <title>cargo-ship (1)</title>
    <desc>Created with Sketch.</desc>
    <g id="Page-1" stroke="none" stroke-width="1" fill="none" fill-rule="evenodd">
        <g id="cargo-ship-(1)" fill="#000000" fill-rule="nonzero">
            <path d="M509.814,174.499 C507.238,170.443 502.83,168.021 498.025,168.021 L434.625,168.021 C423.323,168.021 414.127,177.216 414.127,188.518 C414.127,188.742 414.109,188.962 414.083,189.179 L414.083,140.844 C414.083,133.899 408.432,128.248 401.488,128.248 L346.596,128.248 L346.596,72.097 C346.596,66.748 342.244,62.396 336.895,62.396 L206.298,62.396 C200.949,62.396 196.596,66.748 196.596,72.097 L196.596,193.99 L173.365,193.99 L173.365,149.649 C178.815,149.636 183.245,145.2 183.245,139.747 L183.245,121.394 C183.245,115.933 178.802,111.49 173.341,111.49 L151.003,111.49 L151.003,56.271 C151.003,50.087 145.972,45.056 139.787,45.056 L107.555,45.056 L107.555,8.16 C107.555,3.967 104.156,0.568 99.963,0.568 C95.77,0.568 92.371,3.967 92.371,8.16 L92.371,45.057 L60.139,45.057 C53.955,45.057 48.924,50.088 48.924,56.272 L48.924,111.491 L26.584,111.491 C21.123,111.491 16.68,115.934 16.68,121.395 L16.68,139.748 C16.68,145.201 21.11,149.638 26.56,149.65 L26.56,193.991 L13.005,193.991 C9.065,193.991 5.382,195.746 2.902,198.806 C0.425,201.86 -0.529,205.817 0.284,209.662 C5.741,235.489 18.956,260.678 38.501,282.505 C39.541,283.667 40.191,285.066 40.466,286.534 C40.541,286.934 40.584,287.335 40.601,287.734 C40.603,287.778 40.609,287.823 40.61,287.867 C40.621,288.245 40.597,288.62 40.558,288.993 C40.55,289.064 40.551,289.136 40.541,289.207 C40.495,289.553 40.416,289.892 40.327,290.23 C40.303,290.32 40.292,290.411 40.265,290.5 C40.14,290.918 39.985,291.328 39.794,291.727 L27.534,317.394 C25.45,321.758 25.745,326.807 28.325,330.898 C30.905,334.989 35.332,337.431 40.169,337.431 L431.561,337.431 C436.949,337.431 441.911,334.28 444.201,329.403 L510.665,187.923 C512.709,183.575 512.39,178.555 509.814,174.499 Z M346.595,143.273 L399.059,143.273 L399.059,193.991 L346.595,193.991 L346.595,143.273 Z M279.107,77.42 L331.571,77.42 L331.571,128.248 L279.107,128.248 L279.107,77.42 Z M279.107,143.273 L331.571,143.273 L331.571,193.991 L279.107,193.991 L279.107,143.273 Z M211.62,77.42 L264.084,77.42 L264.084,128.248 L211.62,128.248 L211.62,77.42 Z M211.62,143.273 L264.084,143.273 L264.084,193.991 L211.62,193.991 L211.62,143.273 Z M63.948,60.081 L135.979,60.081 L135.979,111.491 L63.948,111.491 L63.948,60.081 Z M31.705,126.515 L168.22,126.515 L168.22,134.627 L83.259,134.627 C79.11,134.627 75.747,137.99 75.747,142.139 C75.747,146.288 79.11,149.651 83.259,149.651 L158.341,149.651 L158.341,193.991 L41.585,193.991 L41.585,149.651 L47.934,149.651 C52.083,149.651 55.446,146.288 55.446,142.139 C55.446,137.99 52.083,134.627 47.934,134.627 L31.705,134.627 L31.705,126.515 Z M451.965,277.547 L377.497,277.547 C373.348,277.547 369.985,280.91 369.985,285.059 C369.985,289.208 373.348,292.571 377.497,292.571 L444.907,292.571 L430.89,322.408 L41.79,322.408 L53.351,298.203 C53.59,297.703 53.806,297.197 54.007,296.686 C54.07,296.526 54.124,296.364 54.184,296.204 C54.314,295.852 54.44,295.5 54.552,295.144 C54.615,294.946 54.671,294.747 54.729,294.548 C54.82,294.233 54.905,293.917 54.982,293.6 C55.038,293.368 55.091,293.137 55.14,292.905 C55.163,292.794 55.194,292.683 55.216,292.572 L342.171,292.572 C346.32,292.572 349.683,289.209 349.683,285.06 C349.683,280.911 346.32,277.548 342.171,277.548 L53.137,277.548 C52.226,275.747 51.086,274.038 49.694,272.484 C32.273,253.029 20.788,231.689 15.527,209.015 L406.57,209.126 C406.993,209.126 408.25,209.083 408.653,209.015 C419.955,209.015 429.15,199.82 429.15,188.518 C429.15,185.5 431.605,183.045 434.624,183.045 L496.359,183.045 L451.965,277.547 Z" id="Shape"></path>
        </g>
    </g>
</svg>