<?xml version="1.0" encoding="UTF-8"?>
<svg width="144px" height="144px" viewBox="0 0 144 144" version="1.1" xmlns="http://www.w3.org/2000/svg" xmlns:xlink="http://www.w3.org/1999/xlink">
    <!-- Generator: Sketch 53.2 (72643) - https://sketchapp.com -->
    <title>Group 4</title>
    <desc>Created with Sketch.</desc>
    <g id="Page-1" stroke="none" stroke-width="1" fill="none" fill-rule="evenodd">
        <g id="Empty-States" transform="translate(-263.000000, -357.000000)">
            <g id="Group-4" transform="translate(263.000000, 357.000000)">
                <circle id="Oval-Copy-41" fill="#000000" opacity="0.0844494048" cx="72" cy="72" r="72"></circle>
                <g id="clock-(2)" transform="translate(27.000000, 30.000000)" fill="#79858D" fill-rule="nonzero" opacity="0.501790365">
                    <path d="M85.8328711,45.2921016 C85.0607188,37.5255625 81.5909883,30.2036367 76.0624648,24.6749453 C71.3378398,19.9504883 65.5550117,16.9144531 59.4701758,15.5644883 L59.4701758,11.2967383 C61.9554414,10.6784453 63.8027617,8.42883984 63.8027617,5.75494531 C63.8027617,2.60586719 61.2409023,0.0440078125 58.0918242,0.0440078125 L45.9980742,0.0440078125 C42.8489961,0.0440078125 40.2871367,2.60586719 40.2871367,5.75494531 C40.2871367,8.42867188 42.134457,10.6782773 44.6195547,11.2967383 L44.6195547,15.5764141 C38.5533633,16.9320898 32.7896836,19.9639258 28.0784961,24.6751133 C27.0475039,25.7061055 26.0968008,26.7876563 25.2265547,27.9117031 C25.1843945,27.9085117 25.1422344,27.9053203 25.0992344,27.9053203 L13.1296133,27.9053203 C12.2020898,27.9053203 11.4499258,28.6573164 11.4499258,29.5850078 C11.4499258,30.5126992 12.2020898,31.2646953 13.1296133,31.2646953 L22.9410039,31.2646953 C21.709457,33.3265117 20.7164258,35.4917969 19.9605664,37.7207422 L1.6796875,37.7207422 C0.752164063,37.7207422 0,38.4727383 0,39.4004297 C0,40.3281211 0.752164063,41.0801172 1.6796875,41.0801172 L19.011375,41.0801172 C18.5272891,43.2050898 18.2494688,45.3676875 18.1777461,47.536332 L10.75,47.536332 C9.82247656,47.536332 9.0703125,48.2883281 9.0703125,49.2160195 C9.0703125,50.1437109 9.82247656,50.895707 10.75,50.895707 L18.2313281,50.895707 C18.3730937,53.0698945 18.7226367,55.2326602 19.280125,57.3519219 L8.3984375,57.3519219 C7.47091406,57.3519219 6.71875,58.103918 6.71875,59.0316094 C6.71875,59.9593008 7.47091406,60.7112969 8.3984375,60.7112969 L20.3521016,60.7112969 C21.999875,65.0702539 24.5750039,69.1557578 28.0784961,72.65925 C33.6123945,78.1931484 40.9418789,81.6637188 48.7164805,82.4318398 C49.826082,82.5413555 50.9365234,82.5956094 52.0454531,82.5956094 C58.5999297,82.5956094 65.0710938,80.6987383 70.5619922,77.1230195 C71.3393516,76.6167617 71.5592227,75.5761953 71.0529648,74.7988359 C70.546707,74.0214766 69.5061406,73.8016055 68.7287813,74.3078633 C56.7094414,82.1347031 40.6124922,80.442418 30.4539102,70.2838359 C18.5345117,58.3644375 18.5345117,38.9702617 30.4539102,27.0506953 C42.3731406,15.1314648 61.7673164,15.1314648 73.6868828,27.0506953 C83.8320273,37.1960078 85.5335508,53.2791836 77.7325781,65.2926445 C77.2273281,66.0706758 77.448543,67.1110742 78.2264063,67.6161563 C79.0047734,68.1214063 80.0448359,67.9001914 80.549918,67.1221602 C84.7178945,60.7032344 86.5941055,52.9506367 85.8328711,45.2921016 Z M43.6465117,5.75511328 C43.6465117,4.45839453 44.7013555,3.40355078 45.9980742,3.40355078 L58.0918242,3.40355078 C59.388543,3.40355078 60.4433867,4.45839453 60.4433867,5.75511328 C60.4433867,7.05183203 59.388543,8.10667578 58.0918242,8.10667578 L57.7904883,8.10667578 L46.2992422,8.10667578 L45.9980742,8.10667578 C44.7013555,8.10667578 43.6465117,7.05166406 43.6465117,5.75511328 Z M47.9789297,14.9989375 L47.9789297,11.4660508 L56.1108008,11.4660508 L56.1108008,14.9928906 C53.4105352,14.6717344 50.6786914,14.67375 47.9789297,14.9989375 Z" id="XMLID_389_"></path>
                    <path d="M74.8754297,69.7910156 C74.4319922,69.7910156 74.0003125,69.9707422 73.6880586,70.2831641 C73.373957,70.5955859 73.1957422,71.0289453 73.1957422,71.4707031 C73.1957422,71.9124609 73.373957,72.3458203 73.6880586,72.6582422 C74.0003125,72.9723437 74.4321602,73.1503906 74.8754297,73.1503906 C75.3171875,73.1503906 75.7488672,72.9723437 76.0629688,72.6582422 C76.3753906,72.3458203 76.5551172,71.9124609 76.5551172,71.4707031 C76.5551172,71.0289453 76.3755586,70.5955859 76.0629688,70.2831641 C75.7488672,69.9707422 75.3170195,69.7910156 74.8754297,69.7910156 Z" id="XMLID_391_"></path>
                    <path d="M52.0704805,22.6101055 C37.7027695,22.6101055 26.0136563,34.2990508 26.0136563,48.6669297 C26.0136563,63.0348086 37.7027695,74.7237539 52.0704805,74.7237539 C66.4381914,74.7237539 78.1273047,63.0348086 78.1273047,48.6669297 C78.1273047,34.2990508 66.4381914,22.6101055 52.0704805,22.6101055 Z M52.0704805,71.3643789 C39.5549609,71.3643789 29.3730313,61.1822813 29.3730313,48.6669297 C29.3730313,36.1515781 39.5549609,25.9694805 52.0704805,25.9694805 C64.586,25.9694805 74.7679297,36.1515781 74.7679297,48.6669297 C74.7679297,61.1822812 64.586,71.3643789 52.0704805,71.3643789 Z" id="XMLID_394_"></path>
                    <path d="M62.6955117,35.6664844 L54.3760195,43.9858086 C53.680293,43.6418086 52.8977266,43.4474687 52.0704805,43.4474687 C51.2430664,43.4474687 50.460668,43.6418086 49.7649414,43.9858086 L46.0415781,40.2624453 C45.3854922,39.6065273 44.32225,39.6065273 43.6659961,40.2624453 C43.0100781,40.9183633 43.0100781,41.9819414 43.6659961,42.6378594 L47.3893594,46.3612227 C47.0451914,47.0569492 46.8510195,47.8395156 46.8510195,48.6667617 C46.8510195,51.5447383 49.1923359,53.8862227 52.0704805,53.8862227 C54.948625,53.8862227 57.2899414,51.5447383 57.2899414,48.6667617 C57.2899414,47.8395156 57.0956016,47.0569492 56.7516016,46.3612227 L64.8268672,38.285957 L64.8268672,38.285957 L65.0709258,38.0418984 C65.7268438,37.3859805 65.7268438,36.3224023 65.0709258,35.6664844 C64.4150078,35.0105664 63.3517656,35.0105664 62.6955117,35.6664844 Z M52.0704805,50.5270156 C51.0448633,50.5270156 50.2103945,49.6925469 50.2103945,48.6669297 C50.2103945,47.6413125 51.0448633,46.8068437 52.0704805,46.8068437 C53.0960977,46.8068437 53.9305664,47.6413125 53.9305664,48.6669297 C53.9305664,49.6925469 53.0960977,50.5270156 52.0704805,50.5270156 Z" id="XMLID_397_"></path>
                    <path d="M70.0295313,47.0077344 L68.4733008,47.0077344 C67.5457773,47.0077344 66.7936133,47.7597305 66.7936133,48.6874219 C66.7936133,49.6151133 67.5457773,50.3671094 68.4733008,50.3671094 L70.0295313,50.3671094 C70.9570547,50.3671094 71.7092188,49.6151133 71.7092188,48.6874219 C71.7092188,47.7597305 70.9570547,47.0077344 70.0295313,47.0077344 Z" id="XMLID_398_"></path>
                    <path d="M35.6674922,46.96675 L34.1114297,46.96675 C33.1839063,46.96675 32.4317422,47.7187461 32.4317422,48.6464375 C32.4317422,49.5741289 33.1839063,50.326125 34.1114297,50.326125 L35.6674922,50.326125 C36.5950156,50.326125 37.3471797,49.5741289 37.3471797,48.6464375 C37.3471797,47.7187461 36.5950156,46.96675 35.6674922,46.96675 Z" id="XMLID_399_"></path>
                    <path d="M52.0909727,33.9436289 C53.0184961,33.9436289 53.7706602,33.1916328 53.7706602,32.2639414 L53.7706602,30.7078789 C53.7706602,29.7801875 53.0184961,29.0281914 52.0909727,29.0281914 C51.1634492,29.0281914 50.4112852,29.7801875 50.4112852,30.7078789 L50.4112852,32.2639414 C50.4112852,33.1916328 51.1634492,33.9436289 52.0909727,33.9436289 Z" id="XMLID_400_"></path>
                    <path d="M52.0499883,63.3902305 C51.1224648,63.3902305 50.3703008,64.1422266 50.3703008,65.069918 L50.3703008,66.6259805 C50.3703008,67.5536719 51.1224648,68.305668 52.0499883,68.305668 C52.9775117,68.305668 53.7296758,67.5536719 53.7296758,66.6259805 L53.7296758,65.069918 C53.7296758,64.1422266 52.9775117,63.3902305 52.0499883,63.3902305 Z" id="XMLID_424_"></path>
                    <path d="M1.6796875,57.35125 C1.23792969,57.35125 0.804570313,57.5309766 0.492148438,57.8433984 C0.179726563,58.1558203 0,58.5891797 0,59.0309375 C0,59.474375 0.179558594,59.9060547 0.492148438,60.2184766 C0.804738281,60.5308984 1.23792969,60.710625 1.6796875,60.710625 C2.12144531,60.710625 2.55480469,60.5308984 2.86705859,60.2184766 C3.17948047,59.9060547 3.359375,59.4726953 3.359375,59.0309375 C3.359375,58.5891797 3.17964844,58.1558203 2.86705859,57.8433984 C2.55480469,57.5309766 2.12144531,57.35125 1.6796875,57.35125 Z" id="XMLID_425_"></path>
                </g>
            </g>
        </g>
    </g>
</svg>