<?xml version="1.0" encoding="UTF-8"?>
<svg width="65px" height="65px" viewBox="0 0 65 65" version="1.1" xmlns="http://www.w3.org/2000/svg" xmlns:xlink="http://www.w3.org/1999/xlink">
    <!-- Generator: Sketch 53.2 (72643) - https://sketchapp.com -->
    <title>Group 25</title>
    <desc>Created with Sketch.</desc>
    <g id="Page-1" stroke="none" stroke-width="1" fill="none" fill-rule="evenodd">
        <g id="Sales-Page-1" transform="translate(-99.000000, -150.000000)" fill="#4472C4">
            <g id="Group-5" transform="translate(84.000000, 130.000000)">
                <g id="Group-17" transform="translate(14.019639, 20.000000)">
                    <g id="Group-25" transform="translate(0.980361, 0.000000)">
                        <circle id="Oval" opacity="0.15" cx="32.5" cy="32.5" r="32.5"></circle>
                        <path d="M27.1909707,29.88307 C26.8440181,30.2300226 26.8440181,30.786456 27.1909707,31.1334086 L31.8781038,35.8205418 C32.048307,35.9907449 32.2774266,36.0823928 32.5,36.0823928 C32.7225734,36.0823928 32.951693,35.9972912 33.1218962,35.8205418 L37.8090293,31.1334086 C38.1559819,30.786456 38.1559819,30.2300226 37.8090293,29.88307 C37.4620767,29.5361174 36.9056433,29.5361174 36.5586907,29.88307 L33.3837472,33.0580135 L33.3837472,17.8837472 C33.3837472,17.3927765 32.9909707,17 32.5,17 C32.0090293,17 31.6162528,17.3927765 31.6162528,17.8837472 L31.6162528,33.0580135 L28.4413093,29.88307 C28.0943567,29.5361174 27.531377,29.5361174 27.1909707,29.88307 Z" id="Path" fill-rule="nonzero"></path>
                        <path d="M46.9476298,37.1232506 L43.8708804,25.9945824 C43.7988713,25.7392777 43.6221219,25.5363431 43.386456,25.4250564 L43.3013544,25.3857788 C43.1835214,25.3334086 43.0591422,25.3072235 42.934763,25.3072235 L37.3900677,25.3072235 C36.8990971,25.3072235 36.5063205,25.7 36.5063205,26.1909707 C36.5063205,26.6819413 36.8990971,27.0747178 37.3900677,27.0747178 L42.3390519,27.0747178 L44.9379233,36.4882619 L38.0643341,36.4882619 C37.5733634,36.4882619 37.1805869,36.8810384 37.1805869,37.372009 L37.1805869,38.1706546 C37.1805869,39.3424379 36.231377,40.2916479 35.0595937,40.2916479 L29.6654628,40.2916479 C28.4936795,40.2916479 27.5444695,39.3424379 27.5444695,38.1706546 L27.5444695,37.372009 C27.5444695,36.8810384 27.151693,36.4882619 26.6607223,36.4882619 L20.0555305,36.4882619 L22.6674944,27.055079 L27.6164786,27.055079 C28.1074492,27.055079 28.5002257,26.6623025 28.5002257,26.1713318 C28.5002257,25.6803612 28.1074492,25.2875847 27.6164786,25.2875847 L22.065237,25.2875847 C21.9408578,25.2875847 21.8164786,25.3137698 21.6986456,25.36614 L21.613544,25.4054176 C21.3778781,25.5167043 21.1945824,25.7196388 21.1291196,25.9749436 L18.0523702,37.1036117 C18.0327314,37.182167 18.0196388,37.2607223 18.0196388,37.3392777 L18.0196388,41.9805869 C18.0196388,45.4959368 20.8803612,48.3566591 24.3957111,48.3566591 L40.6042889,48.3566591 C44.1196388,48.3566591 46.9803612,45.4959368 46.9803612,41.9805869 L46.9803612,37.3589165 C46.9803612,37.2738149 46.9738149,37.1952596 46.9476298,37.1232506 Z M45.2128668,41.9805869 C45.2128668,44.5205418 43.1442438,46.5891648 40.6042889,46.5891648 L24.3957111,46.5891648 C21.8557562,46.5891648 19.7871332,44.5205418 19.7871332,41.9805869 L19.7871332,38.2557562 L25.7900677,38.2557562 C25.8358916,40.3571106 27.5641084,42.0525959 29.6785553,42.0525959 L35.0726862,42.0525959 C37.1871332,42.0525959 38.9153499,40.3571106 38.9611738,38.2557562 L45.2259594,38.2557562 L45.2259594,41.9805869 L45.2128668,41.9805869 Z" id="Shape" fill-rule="nonzero"></path>
                    </g>
                </g>
            </g>
        </g>
    </g>
</svg>