<?xml version="1.0" encoding="UTF-8"?>
<svg width="18px" height="14px" viewBox="0 0 18 14" version="1.1" xmlns="http://www.w3.org/2000/svg" xmlns:xlink="http://www.w3.org/1999/xlink">
    <!-- Generator: Sketch 53.2 (72643) - https://sketchapp.com -->
    <title>envelope (1)</title>
    <desc>Created with Sketch.</desc>
    <g id="Page-1" stroke="none" stroke-width="1" fill="none" fill-rule="evenodd">
        <g id="Sales-Page-1-Copy" transform="translate(-465.000000, -294.000000)" fill="#FFFFFF" fill-rule="nonzero">
            <g id="Group-5" transform="translate(376.000000, 285.000000)">
                <g id="envelope-(1)" transform="translate(89.000000, 9.000000)">
                    <path d="M15.8025979,0 L2.20111603,0 C0.986964042,0 0,1.00870038 0,2.24959217 L0,11.7504078 C0,12.9912996 0.986964042,14 2.20111603,14 L15.7988735,14 C17.0130255,14 17.9999895,12.9912996 17.9999895,11.7504078 L17.9999895,2.25339859 C18.0037139,1.0125068 17.0167498,0 15.8025979,0 Z M16.9981279,11.7504078 C16.9981279,12.4241436 16.4618153,12.9722675 15.8025979,12.9722675 L2.20111603,12.9722675 C1.54189854,12.9722675 1.00558601,12.4241436 1.00558601,11.7504078 L1.00558601,2.25339859 C1.00558601,1.57966286 1.54189854,1.03153888 2.20111603,1.03153888 L15.7988735,1.03153888 C16.458091,1.03153888 16.9944035,1.57966286 16.9944035,2.25339859 L16.9944035,11.7504078 L16.9981279,11.7504078 Z" id="Shape"></path>
                    <path d="M11.3742846,6.88043597 L15.8233954,2.89018754 C16.0304183,2.70196827 16.0492385,2.38199552 15.8610359,2.17118994 C15.6728332,1.96414875 15.3528887,1.94532682 15.1421017,2.13354609 L9.00669523,7.6408418 L7.80972635,6.57175638 C7.80596229,6.56799199 7.80219824,6.5642276 7.80219824,6.56046322 C7.77584987,6.53411252 7.7495015,6.51152621 7.71938907,6.4889399 L2.84870439,2.1297817 C2.63791741,1.94156244 2.3179729,1.96038436 2.12977025,2.17118994 C1.9415676,2.38199552 1.96038786,2.70196827 2.17117483,2.89018754 L6.67298232,6.91431544 L2.1899951,11.1116051 C1.98673623,11.3035887 1.97544407,11.6235615 2.16741078,11.8306027 C2.26904021,11.9360054 2.40454612,11.9924712 2.54005203,11.9924712 C2.66426579,11.9924712 2.78847954,11.9472986 2.88634492,11.8569534 L7.43708509,7.59943357 L8.6716945,8.70239846 C8.76955988,8.78897933 8.89000958,8.83038756 9.01045928,8.83038756 C9.13090898,8.83038756 9.25512273,8.78521494 9.34922406,8.69863408 L10.6177099,7.56178971 L15.1421017,11.8607177 C15.2399671,11.9548274 15.3679449,12 15.4921587,12 C15.6276646,12 15.7594064,11.9472986 15.8610359,11.8418958 C16.0530026,11.638619 16.0454745,11.3148819 15.8422156,11.1228982 L11.3742846,6.88043597 Z" id="Shape"></path>
                </g>
            </g>
        </g>
    </g>
</svg>