<?xml version="1.0" encoding="UTF-8"?>
<svg width="144px" height="144px" viewBox="0 0 144 144" version="1.1" xmlns="http://www.w3.org/2000/svg" xmlns:xlink="http://www.w3.org/1999/xlink">
    <!-- Generator: Sketch 53.2 (72643) - https://sketchapp.com -->
    <title>Group 3</title>
    <desc>Created with Sketch.</desc>
    <g id="Page-1" stroke="none" stroke-width="1" fill="none" fill-rule="evenodd">
        <g id="Empty-States" transform="translate(-145.000000, -104.000000)">
            <g id="Group-3" transform="translate(145.000000, 104.000000)">
                <circle id="Oval-Copy-37" fill="#000000" opacity="0.0788457961" cx="72" cy="72" r="72"></circle>
                <g id="list-copy" transform="translate(35.000000, 25.000000)" fill="#79858D" fill-rule="nonzero" opacity="0.598353795">
                    <path d="M51.0348085,0 L0,0 L0,93.65625 L74,93.65625 L74,22.7678344 L51.0348085,0 Z M51.9574468,5.32904063 L68.624766,21.853125 L51.9574468,21.853125 L51.9574468,5.32904063 Z M3.14893617,90.534375 L3.14893617,3.121875 L48.8085106,3.121875 L48.8085106,24.975 L70.8510638,24.975 L70.8510638,90.534375 L3.14893617,90.534375 Z" id="Shape"></path>
                    <path d="M57.4270833,32.375 L32.7604167,32.375 C31.9094167,32.375 31.21875,33.1502656 31.21875,34.109375 C31.21875,35.0684844 31.9094167,35.84375 32.7604167,35.84375 L57.4270833,35.84375 C58.2780833,35.84375 58.96875,35.0684844 58.96875,34.109375 C58.96875,33.1502656 58.2780833,32.375 57.4270833,32.375 Z" id="Path"></path>
                    <path d="M26.4017884,28.0883142 L19.7708694,33.392779 L17.6633441,31.2854836 C17.0605332,30.6827386 16.0861689,30.6827386 15.4833581,31.2854836 C14.8805473,31.8882287 14.8805473,32.8624866 15.4833581,33.4652317 L18.5667894,36.5483266 C18.8658823,36.8473868 19.2605615,37 19.6567824,37 C19.9959598,37 20.336679,36.8890086 20.618813,36.6624011 L28.3273912,30.4962113 C28.9934124,29.9628359 29.0997908,28.9932025 28.5678989,28.3287956 C28.0375487,27.6628471 27.0662678,27.5564803 26.4017884,28.0883142 Z" id="Path"></path>
                    <path d="M57.4270833,49.71875 L32.7604167,49.71875 C31.9094167,49.71875 31.21875,50.4940156 31.21875,51.453125 C31.21875,52.4122344 31.9094167,53.1875 32.7604167,53.1875 L57.4270833,53.1875 C58.2780833,53.1875 58.96875,52.4122344 58.96875,51.453125 C58.96875,50.4940156 58.2780833,49.71875 57.4270833,49.71875 Z" id="Path"></path>
                    <path d="M26.4017884,45.4320642 L19.7708694,50.736529 L17.6633441,48.6292336 C17.0605332,48.0264886 16.0861689,48.0264886 15.4833581,48.6292336 C14.8805473,49.2319787 14.8805473,50.2062366 15.4833581,50.8089817 L18.5667894,53.8920766 C18.8658823,54.1911368 19.2605615,54.34375 19.6567824,54.34375 C19.9959598,54.34375 20.336679,54.2327586 20.618813,54.0061511 L28.3273912,47.8399613 C28.9934124,47.3065859 29.0997908,46.3369525 28.5678989,45.6725456 C28.0375487,45.0065971 27.0662678,44.9002303 26.4017884,45.4320642 Z" id="Path"></path>
                    <path d="M57.4270833,67.0625 L32.7604167,67.0625 C31.9094167,67.0625 31.21875,67.8377656 31.21875,68.796875 C31.21875,69.7559844 31.9094167,70.53125 32.7604167,70.53125 L57.4270833,70.53125 C58.2780833,70.53125 58.96875,69.7559844 58.96875,68.796875 C58.96875,67.8377656 58.2780833,67.0625 57.4270833,67.0625 Z" id="Path"></path>
                    <path d="M26.4017884,62.7758142 L19.7708694,68.080279 L17.6633441,65.9729836 C17.0605332,65.3702386 16.0861689,65.3702386 15.4833581,65.9729836 C14.8805473,66.5757287 14.8805473,67.5499866 15.4833581,68.1527317 L18.5667894,71.2358266 C18.8658823,71.5348868 19.2605615,71.6875 19.6567824,71.6875 C19.9959598,71.6875 20.336679,71.5765086 20.618813,71.3499011 L28.3273912,65.1837113 C28.9934124,64.6503359 29.0997908,63.6807025 28.5678989,63.0162956 C28.0375487,62.3503471 27.0662678,62.2439803 26.4017884,62.7758142 Z" id="Path"></path>
                </g>
            </g>
        </g>
    </g>
</svg>