<?xml version="1.0" encoding="UTF-8"?>
<svg width="144px" height="144px" viewBox="0 0 144 144" version="1.1" xmlns="http://www.w3.org/2000/svg" xmlns:xlink="http://www.w3.org/1999/xlink">
    <!-- Generator: Sketch 53.2 (72643) - https://sketchapp.com -->
    <title>Group</title>
    <desc>Created with Sketch.</desc>
    <g id="Page-1" stroke="none" stroke-width="1" fill="none" fill-rule="evenodd">
        <g id="Empty-States" transform="translate(-705.000000, -104.000000)">
            <g id="Group" transform="translate(705.000000, 104.000000)">
                <circle id="Oval-Copy-39" fill="#000000" opacity="0.0844494048" cx="72" cy="72" r="72"></circle>
                <g id="gps-(2)" transform="translate(32.000000, 32.000000)" fill="#79858D" fill-rule="nonzero">
                    <path d="M47.324,32 L49.9906667,32 C50.728,32 51.324,31.404 51.324,30.6666667 C51.324,29.9293333 50.728,29.3333333 49.9906667,29.3333333 L47.324,29.3333333 C46.5866667,29.3333333 45.9906667,29.9293333 45.9906667,30.6666667 C45.9906667,31.404 46.5866667,32 47.324,32 Z" id="Path" opacity="0.500116257"></path>
                    <path d="M42.66,41.3333333 C42.0826667,41.332 41.5213333,41.2293333 40.9906667,41.0266667 C40.308,40.7666667 39.5333333,41.1093333 39.2693333,41.7973333 C39.008,42.4853333 39.3533333,43.256 40.04,43.5186667 C40.8746667,43.836 41.7533333,43.9986667 42.6573333,44 L43.1333333,44 C43.8706667,44 44.4666667,43.404 44.4666667,42.6666667 C44.4666667,41.9293333 43.8706667,41.3333333 43.1333333,41.3333333 L42.66,41.3333333 L42.66,41.3333333 Z" id="Path" opacity="0.500116257"></path>
                    <path d="M39.4946667,32.9013333 C39.736,32.9013333 39.9786667,32.836 40.1986667,32.7 C40.7893333,32.332 41.4426667,32.1066667 42.1373333,32.0293333 C42.8693333,31.948 43.3973333,31.2893333 43.3173333,30.5573333 C43.2373333,29.8253333 42.5826667,29.3026667 41.8453333,29.3773333 C40.7493333,29.4986667 39.72,29.8533333 38.7866667,30.436 C38.1613333,30.8253333 37.972,31.648 38.3613333,32.2733333 C38.6146667,32.6786667 39.0493333,32.9013333 39.4946667,32.9013333 Z" id="Path" opacity="0.500116257"></path>
                    <path d="M47.9906667,53.3333333 C47.876,53.3333333 47.7626667,53.336 47.6493333,53.3413333 C46.9133333,53.3706667 46.3426667,53.992 46.372,54.728 C46.4,55.4453333 46.992,56.0066667 47.7026667,56.0066667 C47.7213333,56.0066667 47.74,56.0066667 47.7586667,56.0053333 L50.3706667,56 C51.108,56 51.704,55.404 51.704,54.6666667 C51.704,53.9293333 51.108,53.3333333 50.3706667,53.3333333 L47.9906667,53.3333333 Z" id="Path" opacity="0.500116257"></path>
                    <path d="M57.9906667,32 C58.728,32 59.324,31.404 59.324,30.6666667 C59.324,29.9293333 58.728,29.3333333 57.9906667,29.3333333 L55.324,29.3333333 C54.5866667,29.3333333 53.9906667,29.9293333 53.9906667,30.6666667 C53.9906667,31.404 54.5866667,32 55.324,32 L57.9906667,32 Z" id="Path" opacity="0.500116257"></path>
                    <path d="M63.704,53.3333333 C62.9666667,53.3333333 62.3706667,53.9293333 62.3706667,54.6666667 C62.3706667,55.404 62.9666667,56 63.704,56 L66.3706667,56 C67.108,56 67.704,55.404 67.704,54.6666667 C67.704,53.9293333 67.108,53.3333333 66.3706667,53.3333333 L63.704,53.3333333 Z" id="Path" opacity="0.500116257"></path>
                    <path d="M68.468,42.6666667 C68.468,41.9293333 67.872,41.3333333 67.1346667,41.3333333 L64.468,41.3333333 C63.7306667,41.3333333 63.1346667,41.9293333 63.1346667,42.6666667 C63.1346667,43.404 63.7306667,44 64.468,44 L67.1346667,44 C67.8706667,44 68.468,43.404 68.468,42.6666667 Z" id="Path" opacity="0.500116257"></path>
                    <path d="M55.704,56 L58.3706667,56 C59.108,56 59.704,55.404 59.704,54.6666667 C59.704,53.9293333 59.108,53.3333333 58.3706667,53.3333333 L55.704,53.3333333 C54.9666667,53.3333333 54.3706667,53.9293333 54.3706667,54.6666667 C54.3706667,55.404 54.968,56 55.704,56 Z" id="Path" opacity="0.500116257"></path>
                    <path d="M60.468,42.6666667 C60.468,41.9293333 59.872,41.3333333 59.1346667,41.3333333 L56.468,41.3333333 C55.7306667,41.3333333 55.1346667,41.9293333 55.1346667,42.6666667 C55.1346667,43.404 55.7306667,44 56.468,44 L59.1346667,44 C59.8706667,44 60.468,43.404 60.468,42.6666667 Z" id="Path" opacity="0.500116257"></path>
                    <path d="M48.468,41.3333333 C47.7306667,41.3333333 47.1346667,41.9293333 47.1346667,42.6666667 C47.1346667,43.404 47.7306667,44 48.468,44 L51.1346667,44 C51.872,44 52.468,43.404 52.468,42.6666667 C52.468,41.9293333 51.872,41.3333333 51.1346667,41.3333333 L48.468,41.3333333 Z" id="Path" opacity="0.500116257"></path>
                    <path d="M32.0853333,77.3333333 L29.4186667,77.3333333 C28.6813333,77.3333333 28.0853333,77.9293333 28.0853333,78.6666667 C28.0853333,79.404 28.6813333,80 29.4186667,80 L32.0853333,80 C32.8226667,80 33.4186667,79.404 33.4186667,78.6666667 C33.4186667,77.9293333 32.8213333,77.3333333 32.0853333,77.3333333 Z" id="Path" opacity="0.500116257"></path>
                    <path d="M24.0853333,77.3333333 L21.4186667,77.3333333 C20.6813333,77.3333333 20.0853333,77.9293333 20.0853333,78.6666667 C20.0853333,79.404 20.6813333,80 21.4186667,80 L24.0853333,80 C24.8226667,80 25.4186667,79.404 25.4186667,78.6666667 C25.4186667,77.9293333 24.8213333,77.3333333 24.0853333,77.3333333 Z" id="Path" opacity="0.500116257"></path>
                    <path d="M70.1386667,72.6893333 C69.42,72.528 68.7066667,72.9786667 68.5453333,73.6973333 C68.392,74.3773333 68.0946667,75.0026667 67.6613333,75.5533333 C67.2066667,76.132 67.3053333,76.9706667 67.8853333,77.4253333 C68.1306667,77.6173333 68.42,77.7106667 68.708,77.7106667 C69.104,77.7106667 69.4946667,77.536 69.7573333,77.2013333 C70.4293333,76.348 70.9093333,75.34 71.1466667,74.284 C71.308,73.564 70.8573333,72.8506667 70.1386667,72.6893333 Z" id="Path" opacity="0.50406901"></path>
                    <path d="M68.708,70.292 C68.996,70.292 69.288,70.1986667 69.5306667,70.0066667 C70.1106667,69.5506667 70.2093333,68.712 69.7546667,68.1346667 C69.084,67.2826667 68.2186667,66.5786667 67.2493333,66.0973333 C66.5866667,65.768 65.7893333,66.0386667 65.4613333,66.6973333 C65.1333333,67.3573333 65.4026667,68.1573333 66.0613333,68.4853333 C66.6786667,68.7906667 67.2306667,69.24 67.6573333,69.784 C67.9213333,70.1173333 68.312,70.292 68.708,70.292 Z" id="Path" opacity="0.50406901"></path>
                    <path d="M62.7533333,66.6666667 C62.7533333,65.9293333 62.1573333,65.3333333 61.42,65.3333333 L58.7533333,65.3333333 C58.016,65.3333333 57.42,65.9293333 57.42,66.6666667 C57.42,67.404 58.016,68 58.7533333,68 L61.42,68 C62.156,68 62.7533333,67.404 62.7533333,66.6666667 Z" id="Path" opacity="0.50406901"></path>
                    <path d="M63.9906667,77.3333333 L61.4173333,77.3333333 C60.68,77.3333333 60.084,77.9293333 60.084,78.6666667 C60.084,79.404 60.68,80 61.4173333,80 L64.0453333,79.9986667 L64.084,78.6653333 L64.084,79.9986667 C64.8213333,79.9986667 65.3706667,79.4026667 65.3706667,78.6653333 C65.3706667,77.9293333 64.728,77.3333333 63.9906667,77.3333333 Z" id="Path" opacity="0.50406901"></path>
                    <path d="M79.2346667,47.5093333 C79.1173333,46.7813333 78.4306667,46.284 77.7066667,46.404 C76.9786667,46.52 76.484,47.2053333 76.6013333,47.932 C76.6386667,48.1693333 76.66,48.4106667 76.6573333,48.668 C76.6573333,49.116 76.5933333,49.5586667 76.468,49.9853333 C76.2613333,50.692 76.6653333,51.4333333 77.3733333,51.64 C77.4986667,51.676 77.624,51.6933333 77.748,51.6933333 C78.3253333,51.6933333 78.8573333,51.3173333 79.028,50.7346667 C79.224,50.064 79.324,49.3693333 79.324,48.6773333 C79.3266667,48.2933333 79.2973333,47.9 79.2346667,47.5093333 Z" id="Path" opacity="0.50406901"></path>
                    <path d="M37.372,39.8066667 C38.0706667,39.576 38.452,38.8226667 38.2226667,38.1226667 C38.0693333,37.6546667 37.9906667,37.1653333 37.9906667,36.672 C37.992,36.4706667 38.004,36.2693333 38.028,36.0733333 C38.12,35.3426667 37.6026667,34.6746667 36.872,34.584 C36.1186667,34.5 35.4733333,35.012 35.3826667,35.74 C35.3453333,36.0413333 35.3253333,36.348 35.324,36.6653333 C35.324,37.4493333 35.4466667,38.22 35.688,38.956 C35.8733333,39.5173333 36.3946667,39.8733333 36.9546667,39.8733333 C37.0933333,39.8733333 37.2346667,39.8533333 37.372,39.8066667 Z" id="Path" opacity="0.50406901"></path>
                    <path d="M75.6613333,42.3173333 C74.7093333,41.7653333 73.6693333,41.4413333 72.572,41.3546667 C71.84,41.3013333 71.196,41.844 71.1386667,42.58 C71.0813333,43.3146667 71.6293333,43.956 72.364,44.0133333 C73.06,44.068 73.72,44.2733333 74.324,44.624 C74.5346667,44.7466667 74.7653333,44.804 74.992,44.804 C75.452,44.804 75.9,44.5653333 76.1466667,44.14 C76.516,43.504 76.2986667,42.688 75.6613333,42.3173333 Z" id="Path" opacity="0.50406901"></path>
                    <path d="M73.7933333,52.972 C73.2213333,53.212 72.616,53.3333333 71.9906667,53.3333333 L71.704,53.3333333 C70.9666667,53.3333333 70.3706667,53.9293333 70.3706667,54.6666667 C70.3706667,55.404 70.9666667,56 71.704,56 L71.9906667,56 C72.972,56 73.9253333,55.808 74.824,55.4306667 C75.504,55.1453333 75.8226667,54.364 75.5373333,53.6853333 C75.2533333,53.0066667 74.4666667,52.6866667 73.7933333,52.972 Z" id="Path" opacity="0.50406901"></path>
                    <path d="M43.4066667,59.7853333 C43.5386667,59.1 43.816,58.4666667 44.232,57.9013333 C44.668,57.3093333 44.5413333,56.4746667 43.948,56.0373333 C43.3546667,55.6026667 42.5213333,55.728 42.084,56.3213333 C41.432,57.2093333 40.9946667,58.2053333 40.7866667,59.284 C40.648,60.0066667 41.1213333,60.7053333 41.8453333,60.8453333 C41.9293333,60.8613333 42.0146667,60.8693333 42.0973333,60.8693333 C42.724,60.8666667 43.2826667,60.4226667 43.4066667,59.7853333 Z" id="Path" opacity="0.50406901"></path>
                    <path d="M45.496,67.4586667 C46.0026667,67.4586667 46.4853333,67.1693333 46.7093333,66.68 C47.0146667,66.0093333 46.7213333,65.2186667 46.052,64.9133333 C45.4266667,64.6266667 44.86,64.196 44.4146667,63.6653333 C43.94,63.1013333 43.1,63.028 42.536,63.5026667 C41.972,63.976 41.8986667,64.8173333 42.3733333,65.3813333 C43.072,66.212 43.96,66.8893333 44.9426667,67.3373333 C45.1226667,67.4186667 45.3106667,67.4586667 45.496,67.4586667 Z" id="Path" opacity="0.50406901"></path>
                    <path d="M40.0853333,77.3333333 L37.4186667,77.3333333 C36.6813333,77.3333333 36.0853333,77.9293333 36.0853333,78.6666667 C36.0853333,79.404 36.6813333,80 37.4186667,80 L40.0853333,80 C40.8226667,80 41.4186667,79.404 41.4186667,78.6666667 C41.4186667,77.9293333 40.8213333,77.3333333 40.0853333,77.3333333 Z" id="Path" opacity="0.50406901"></path>
                    <path d="M48.0853333,77.3333333 L45.4186667,77.3333333 C44.6813333,77.3333333 44.0853333,77.9293333 44.0853333,78.6666667 C44.0853333,79.404 44.6813333,80 45.4186667,80 L48.0853333,80 C48.8226667,80 49.4186667,79.404 49.4186667,78.6666667 C49.4186667,77.9293333 48.8213333,77.3333333 48.0853333,77.3333333 Z" id="Path" opacity="0.50406901"></path>
                    <path d="M54.7533333,66.6666667 C54.7533333,65.9293333 54.1573333,65.3333333 53.42,65.3333333 L50.7533333,65.3333333 C50.016,65.3333333 49.42,65.9293333 49.42,66.6666667 C49.42,67.404 50.016,68 50.7533333,68 L53.42,68 C54.156,68 54.7533333,67.404 54.7533333,66.6666667 Z" id="Path" opacity="0.50406901"></path>
                    <path d="M56.0853333,77.3333333 L53.4186667,77.3333333 C52.6813333,77.3333333 52.0853333,77.9293333 52.0853333,78.6666667 C52.0853333,79.404 52.6813333,80 53.4186667,80 L56.0853333,80 C56.8226667,80 57.4186667,79.404 57.4186667,78.6666667 C57.4186667,77.9293333 56.8213333,77.3333333 56.0853333,77.3333333 Z" id="Path" opacity="0.50406901"></path>
                    <path d="M28.028,38.636 C25,35.216 20.9626667,33.3333333 16.6573333,33.3333333 C12.352,33.3333333 8.31466667,35.216 5.288,38.636 C-0.861333333,45.584 -0.861333333,56.8866667 5.288,63.8346667 L16.6573333,76.6786667 L28.0266667,63.8346667 C34.1773333,56.8866667 34.1773333,45.584 28.028,38.636 Z M16.6573333,57.3333333 C12.2453333,57.3333333 8.65733333,53.7453333 8.65733333,49.3333333 C8.65733333,44.9213333 12.2453333,41.3333333 16.6573333,41.3333333 C21.0693333,41.3333333 24.6573333,44.9213333 24.6573333,49.3333333 C24.6573333,53.7453333 21.0693333,57.3333333 16.6573333,57.3333333 Z" id="Shape" opacity="0.59702846"></path>
                    <path d="M64.996,32.676 L73.6146667,22.9613333 C78.252,17.7346667 78.252,9.23333333 73.6146667,4.00666667 C71.3213333,1.42266667 68.26,0 64.9946667,0 C61.7306667,0 58.6693333,1.42266667 56.376,4.00666667 C51.74,9.23333333 51.74,17.7346667 56.376,22.9613333 L64.996,32.676 Z M65.324,5.33333333 C69.3666667,5.33333333 72.6573333,8.624 72.6573333,12.6666667 C72.6573333,16.7093333 69.3666667,20 65.324,20 C61.2813333,20 57.9906667,16.7093333 57.9906667,12.6666667 C57.9906667,8.624 61.2813333,5.33333333 65.324,5.33333333 Z" id="Shape" opacity="0.59702846"></path>
                </g>
            </g>
        </g>
    </g>
</svg>