<?xml version="1.0" encoding="UTF-8"?>
<svg width="15px" height="21px" viewBox="0 0 15 21" version="1.1" xmlns="http://www.w3.org/2000/svg" xmlns:xlink="http://www.w3.org/1999/xlink">
    <!-- Generator: Sketch 55.2 (78181) - https://sketchapp.com -->
    <title>Group 73</title>
    <desc>Created with Sketch.</desc>
    <g id="Page-1" stroke="none" stroke-width="1" fill="none" fill-rule="evenodd">
        <g id="Group-73" transform="translate(-5.000000, -2.000000)">
            <rect id="Rectangle-Copy-145" x="0" y="0" width="25" height="25"></rect>
            <path d="M12.5,18.7942584 C11.46875,18.7942584 10.625,19.6339713 10.625,20.6602871 C10.625,21.6866029 11.46875,22.5263158 12.5,22.5263158 C13.53125,22.5263158 14.375,21.6866029 14.375,20.6602871 C14.375,19.6339713 13.53125,18.7942584 12.5,18.7942584 Z M6.875,2 C5.84375,2 5,2.83971292 5,3.86602871 C5,4.8923445 5.84375,5.73205742 6.875,5.73205742 C7.90625,5.73205742 8.75,4.8923445 8.75,3.86602871 C8.75,2.83971292 7.90625,2 6.875,2 Z M6.875,7.59808612 C5.84375,7.59808612 5,8.43779904 5,9.46411483 C5,10.4904306 5.84375,11.3301435 6.875,11.3301435 C7.90625,11.3301435 8.75,10.4904306 8.75,9.46411483 C8.75,8.43779904 7.90625,7.59808612 6.875,7.59808612 Z M6.875,13.1961722 C5.84375,13.1961722 5,14.0358852 5,15.062201 C5,16.0885167 5.84375,16.9282297 6.875,16.9282297 C7.90625,16.9282297 8.75,16.0885167 8.75,15.062201 C8.75,14.0358852 7.90625,13.1961722 6.875,13.1961722 Z M18.125,5.73205742 C19.15625,5.73205742 20,4.8923445 20,3.86602871 C20,2.83971292 19.15625,2 18.125,2 C17.09375,2 16.25,2.83971292 16.25,3.86602871 C16.25,4.8923445 17.09375,5.73205742 18.125,5.73205742 Z M12.5,13.1961722 C11.46875,13.1961722 10.625,14.0358852 10.625,15.062201 C10.625,16.0885167 11.46875,16.9282297 12.5,16.9282297 C13.53125,16.9282297 14.375,16.0885167 14.375,15.062201 C14.375,14.0358852 13.53125,13.1961722 12.5,13.1961722 Z M18.125,13.1961722 C17.09375,13.1961722 16.25,14.0358852 16.25,15.062201 C16.25,16.0885167 17.09375,16.9282297 18.125,16.9282297 C19.15625,16.9282297 20,16.0885167 20,15.062201 C20,14.0358852 19.15625,13.1961722 18.125,13.1961722 Z M18.125,7.59808612 C17.09375,7.59808612 16.25,8.43779904 16.25,9.46411483 C16.25,10.4904306 17.09375,11.3301435 18.125,11.3301435 C19.15625,11.3301435 20,10.4904306 20,9.46411483 C20,8.43779904 19.15625,7.59808612 18.125,7.59808612 Z M12.5,7.59808612 C11.46875,7.59808612 10.625,8.43779904 10.625,9.46411483 C10.625,10.4904306 11.46875,11.3301435 12.5,11.3301435 C13.53125,11.3301435 14.375,10.4904306 14.375,9.46411483 C14.375,8.43779904 13.53125,7.59808612 12.5,7.59808612 Z M12.5,2 C11.46875,2 10.625,2.83971292 10.625,3.86602871 C10.625,4.8923445 11.46875,5.73205742 12.5,5.73205742 C13.53125,5.73205742 14.375,4.8923445 14.375,3.86602871 C14.375,2.83971292 13.53125,2 12.5,2 Z" id="Shape-Copy" fill="#74849A" fill-rule="nonzero"></path>
        </g>
    </g>
</svg>