<?xml version="1.0" encoding="UTF-8"?>
<svg width="18px" height="22px" viewBox="0 0 18 22" version="1.1" xmlns="http://www.w3.org/2000/svg" xmlns:xlink="http://www.w3.org/1999/xlink">
    <!-- Generator: Sketch 55.2 (78181) - https://sketchapp.com -->
    <title>Group 75</title>
    <desc>Created with Sketch.</desc>
    <g id="Page-1" stroke="none" stroke-width="1" fill="none" fill-rule="evenodd">
        <g id="Group-75" transform="translate(-3.000000, -2.000000)">
            <rect id="Rectangle-Copy-147" x="0" y="0" width="25" height="25"></rect>
            <g id="list-(1)-copy" transform="translate(3.000000, 2.000000)" fill="#74849A" fill-rule="nonzero">
                <path d="M17.2079137,2.25323741 L13.0381295,2.25323741 L13.0381295,0.776978417 C13.0381295,0.349640288 12.6884892,0 12.2611511,0 L5.76906475,0 C5.34172662,0 4.99208633,0.349640288 4.99208633,0.776978417 L4.99208633,4.8647482 C4.99208633,5.29208633 5.34172662,5.64172662 5.76906475,5.64172662 L10.5690647,5.64172662 C10.9964029,5.64172662 11.3460432,5.29208633 11.3460432,4.8647482 C11.3460432,4.43741007 10.9964029,4.08776978 10.5690647,4.08776978 L6.54604317,4.08776978 L6.54604317,1.55395683 L11.4884892,1.55395683 L11.4884892,3.03021583 C11.4884892,3.45755396 11.8381295,3.80719424 12.2654676,3.80719424 L16.4352518,3.80719424 L16.4352518,19.5798561 L1.59496403,19.5798561 L1.59496403,3.80719424 L2.78201439,3.80719424 C3.20935252,3.80719424 3.55899281,3.45755396 3.55899281,3.03021583 C3.55899281,2.6028777 3.20935252,2.25323741 2.78201439,2.25323741 L0.817985612,2.25323741 C0.390647482,2.25323741 0.0410071942,2.6028777 0.0410071942,3.03021583 L0.0410071942,20.3568345 C0.0410071942,20.7841727 0.390647482,21.1338129 0.817985612,21.1338129 L17.2079137,21.1338129 C17.6352518,21.1338129 17.9848921,20.7841727 17.9848921,20.3568345 L17.9848921,3.03021583 C17.9848921,2.6028777 17.6352518,2.25323741 17.2079137,2.25323741 Z" id="Path"></path>
                <path d="M12.5935252,9.36690647 C12.2913669,9.06043165 11.7992806,9.06043165 11.4928058,9.36258993 L7.87122302,12.9539568 L6.54604317,11.6201439 C6.24388489,11.3136691 5.75179856,11.3136691 5.44532374,11.6158273 C5.13884892,11.9179856 5.13884892,12.4100719 5.44100719,12.7165468 L7.31438849,14.6028777 C7.46546763,14.7539568 7.66402878,14.8316547 7.86690647,14.8316547 C8.06546763,14.8316547 8.26402878,14.7582734 8.41510791,14.6071942 L12.5892086,10.4676259 C12.8956835,10.1654676 12.8956835,9.67338129 12.5935252,9.36690647 Z" id="Path"></path>
            </g>
        </g>
    </g>
</svg>