<?xml version="1.0" encoding="UTF-8"?>
<svg width="23px" height="23px" viewBox="0 0 23 23" version="1.1" xmlns="http://www.w3.org/2000/svg" xmlns:xlink="http://www.w3.org/1999/xlink">
    <!-- Generator: Sketch 55.2 (78181) - https://sketchapp.com -->
    <title>Group 70</title>
    <desc>Created with Sketch.</desc>
    <g id="Page-1" stroke="none" stroke-width="1" fill="none" fill-rule="evenodd">
        <g id="Group-70" transform="translate(-1.000000, -1.000000)">
            <rect id="Rectangle-Copy-138" x="0" y="0" width="25" height="25"></rect>
            <g id="architecture-and-city-copy" transform="translate(1.000000, 1.000000)" fill="#74849A" fill-rule="nonzero">
                <path d="M22.3261667,21.652345 L20.0337298,21.652345 L20.0337298,8.08174025 L20.731428,8.36846786 C20.8153062,8.40303665 20.9019921,8.41935589 20.9872741,8.41935589 C21.2524204,8.41935589 21.5038796,8.26177851 21.6109208,8.0013723 C21.7523556,7.65726402 21.5879332,7.26349608 21.2438221,7.12206252 L20.0337298,6.62476378 L20.0337298,5.74317282 L20.731428,6.02990047 C20.8151307,6.06429375 20.9019921,6.080613 20.9872741,6.080613 C21.2524204,6.080613 21.5037041,5.92321112 21.6107453,5.66280487 C21.7523556,5.31869663 21.5879332,4.92492865 21.2436466,4.78349509 L9.72934515,0.0507343776 C9.38523395,-0.0906991814 8.99146264,0.0737217327 8.84985235,0.417829976 C8.70841758,0.762113729 8.87283991,1.15570616 9.2169511,1.29731522 L9.93254801,1.59141285 L9.93254801,2.47282834 L9.72934515,2.38930181 C9.38523395,2.24804371 8.99146264,2.41228916 8.85002782,2.75639741 C8.70841758,3.10068116 8.87283991,3.49444905 9.21712661,3.63588266 L9.93254801,3.92998028 L9.93254801,5.27202002 L4.20689552,8.23317597 C3.44742928,8.62589103 2.97574599,9.40131907 2.97574599,10.2567641 L2.97574599,21.652345 L0.673833266,21.652345 C0.301645684,21.652345 0,21.9539881 0,22.3261725 C0,22.6983569 0.301645684,23 0.673833266,23 L22.3261667,23 C22.6983543,23 23,22.6983569 23,22.3261725 C23,21.9539881 22.6983543,21.652345 22.3261667,21.652345 L22.3261667,21.652345 Z M11.2802145,2.14521481 L18.6860633,5.18919539 L18.6860633,6.07078635 L11.2802145,3.02680577 L11.2802145,2.14521481 Z M7.80172578,21.652345 L7.80172578,19.5089068 C7.80172578,19.1368979 7.50008009,18.8350793 7.12789251,18.8350793 C6.7558804,18.8350793 6.45405925,19.1368979 6.45405925,19.5089068 L6.45405925,21.652345 L4.32341252,21.652345 L4.32341252,17.4823356 L7.12789251,17.4823356 C7.50008009,17.4823356 7.80172578,17.180517 7.80172578,16.8085081 C7.80172578,16.4363237 7.50008009,16.1346806 7.12789251,16.1346806 L4.32341252,16.1346806 L4.32341252,15.0086517 L7.12789251,15.0086517 C7.50008009,15.0086517 7.80172578,14.7070086 7.80172578,14.3348242 C7.80172578,13.9628153 7.50008009,13.6609967 7.12789251,13.6609967 L4.32341252,13.6609967 L4.32341252,12.4998726 L7.12789251,12.4998726 C7.50008009,12.4998726 7.80172578,12.1982296 7.80172578,11.8260451 C7.80172578,11.4538608 7.50008009,11.1522177 7.12789251,11.1522177 L4.32341252,11.1522177 L4.32341252,10.2567641 C4.32341252,9.90721612 4.51591123,9.59048212 4.82597983,9.43009712 L9.93254801,6.78918469 L9.93254801,21.652345 L7.80172578,21.652345 Z M17.0046387,21.652345 L17.0046387,19.5089068 C17.0046387,19.1368979 16.702993,18.8350793 16.3308054,18.8350793 C15.9586178,18.8350793 15.6569722,19.1368979 15.6569722,19.5089068 L15.6569722,21.652345 L14.3093056,21.652345 L14.3093056,19.5089068 C14.3093056,19.1368979 14.0076599,18.8350793 13.6354724,18.8350793 C13.2632848,18.8350793 12.9616391,19.1368979 12.9616391,19.5089068 L12.9616391,21.652345 L11.2802145,21.652345 L11.2802145,4.48378224 L18.6860633,7.52776282 L18.6860633,21.652345 L17.0046387,21.652345 Z" id="Shape"></path>
                <path d="M13.5569106,13.458072 C13.1954173,13.458072 12.902439,13.7698662 12.902439,14.1545756 L12.902439,15.5664465 C12.902439,15.9511559 13.1954173,16.2629501 13.5569106,16.2629501 C13.9184038,16.2629501 14.2113821,15.9511559 14.2113821,15.5664465 L14.2113821,14.1545756 C14.2113821,13.7698662 13.9184038,13.458072 13.5569106,13.458072 Z" id="Shape"></path>
                <path d="M16.3617886,13.458072 C16.0004658,13.458072 15.7073171,13.7698662 15.7073171,14.1545756 L15.7073171,15.5664465 C15.7073171,15.9511559 16.0004658,16.2629501 16.3617886,16.2629501 C16.7232819,16.2629501 17.0162602,15.9511559 17.0162602,15.5664465 L17.0162602,14.1545756 C17.0162602,13.7698662 16.7232819,13.458072 16.3617886,13.458072 Z" id="Shape"></path>
                <path d="M13.5569106,10.9416957 C13.9184038,10.9416957 14.2113821,10.6297201 14.2113821,10.2451921 L14.2113821,8.83332126 C14.2113821,8.44861186 13.9184038,8.13681765 13.5569106,8.13681765 C13.1954173,8.13681765 12.902439,8.44861186 12.902439,8.83332126 L12.902439,10.2451921 C12.902439,10.6297201 13.1954173,10.9416957 13.5569106,10.9416957 Z" id="Shape"></path>
                <path d="M16.3617886,10.9416957 C16.7231114,10.9416957 17.0162602,10.6297201 17.0162602,10.2451921 L17.0162602,8.83332126 C17.0162602,8.44861186 16.7231114,8.13681765 16.3617886,8.13681765 C16.0002953,8.13681765 15.7073171,8.44861186 15.7073171,8.83332126 L15.7073171,10.2451921 C15.7073171,10.6297201 16.0002953,10.9416957 16.3617886,10.9416957 Z" id="Shape"></path>
            </g>
        </g>
    </g>
</svg>