<?xml version="1.0" encoding="UTF-8"?>
<svg width="20px" height="23px" viewBox="0 0 20 23" version="1.1" xmlns="http://www.w3.org/2000/svg" xmlns:xlink="http://www.w3.org/1999/xlink">
    <!-- Generator: Sketch 55.2 (78181) - https://sketchapp.com -->
    <title>Group 71</title>
    <desc>Created with Sketch.</desc>
    <g id="Page-1" stroke="none" stroke-width="1" fill="none" fill-rule="evenodd">
        <g id="Group-71" transform="translate(-2.000000, -1.000000)">
            <rect id="Rectangle-Copy-139" x="0" y="0" width="25" height="25"></rect>
            <g id="agenda-copy" transform="translate(2.000000, 1.000000)" fill="#74849A" fill-rule="nonzero">
                <path d="M19.2338178,0 L2.49394797,0 C2.07076537,0 1.72786795,0.34504695 1.72786795,0.770652807 L1.72786795,5.21464791 L0.76608002,5.21464791 C0.342897417,5.21464791 0,5.55969486 0,5.98530072 C0,6.41090657 0.342897417,6.75595352 0.76608002,6.75595352 L1.72786795,6.75595352 L1.72786795,10.4293986 L0.76608002,10.4293986 C0.342897417,10.4293986 0,10.7744455 0,11.2000514 C0,11.6256572 0.342897417,11.9707042 0.76608002,11.9707042 L1.72786795,11.9707042 L1.72786795,15.6440465 L0.76608002,15.6440465 C0.342897417,15.6440465 0,15.9890934 0,16.4146993 C0,16.8403051 0.342897417,17.1853521 0.76608002,17.1853521 L1.72786795,17.1853521 L1.72786795,21.6293472 C1.72786795,22.054953 2.07076537,22.4 2.49394797,22.4 L19.23392,22.4 C19.6571026,22.4 20,22.054953 20,21.6293472 L20,0.770652807 C20,0.34504695 19.6570004,0 19.2338178,0 Z M18.46784,20.8586944 L3.26002799,20.8586944 L3.26002799,17.1853521 L4.22181592,17.1853521 C4.64499852,17.1853521 4.98789594,16.8403051 4.98789594,16.4146993 C4.98789594,15.9890934 4.64499852,15.6440465 4.22181592,15.6440465 L3.26002799,15.6440465 L3.26002799,11.9707042 L4.22181592,11.9707042 C4.64499852,11.9707042 4.98789594,11.6256572 4.98789594,11.2000514 C4.98789594,10.7744455 4.64499852,10.4293986 4.22181592,10.4293986 L3.26002799,10.4293986 L3.26002799,6.75595352 L4.22181592,6.75595352 C4.64499852,6.75595352 4.98789594,6.41090657 4.98789594,5.98530072 C4.98789594,5.55969486 4.64499852,5.21464791 4.22181592,5.21464791 L3.26002799,5.21464791 L3.26002799,1.54130561 L18.46784,1.54130561 L18.46784,20.8586944 L18.46784,20.8586944 Z" id="Shape"></path>
                <path d="M11.6004669,11.6 C13.3646819,11.6 14.8,10.1644889 14.8,8.40005186 C14.8,6.63551111 13.3646819,5.2 11.6004669,5.2 C9.83573316,5.2 8.4,6.63551111 8.4,8.40005186 C8.4,10.1644889 9.83573316,11.6 11.6004669,11.6 Z M11.6004669,6.75604467 C12.5065413,6.75604467 13.2437059,7.49356067 13.2437059,8.40015559 C13.2437059,9.30664679 12.5066451,10.0441628 11.6004669,10.0441628 C10.6938737,10.0441628 9.95629407,9.30664679 9.95629407,8.40015559 C9.95629407,7.49356067 10.6938737,6.75604467 11.6004669,6.75604467 Z" id="Shape"></path>
                <path d="M7.95123417,17.2 C8.36621593,17.2 8.70246834,16.8545609 8.70246834,16.4284714 L8.70246834,15.0951671 C8.70246834,14.2393875 9.38058239,13.5430572 10.2139515,13.5430572 L12.5860485,13.5430572 C13.4194176,13.5430572 14.0975317,14.2392847 14.0975317,15.0951671 L14.0975317,16.4284714 C14.0975317,16.8545609 14.4337841,17.2 14.8487658,17.2 C15.2636474,17.2 15.6,16.8545609 15.6,16.4284714 L15.6,15.0951671 C15.6,13.3885458 14.2479788,12 12.5860485,12 L10.2139515,12 C8.55202118,12 7.2,13.3884429 7.2,15.0951671 L7.2,16.4284714 C7.2,16.8545609 7.53635258,17.2 7.95123417,17.2 Z" id="Shape"></path>
            </g>
        </g>
    </g>
</svg>