<?xml version="1.0" encoding="UTF-8"?>
<svg width="65px" height="65px" viewBox="0 0 65 65" version="1.1" xmlns="http://www.w3.org/2000/svg" xmlns:xlink="http://www.w3.org/1999/xlink">
    <!-- Generator: Sketch 53.2 (72643) - https://sketchapp.com -->
    <title>Group 18</title>
    <desc>Created with Sketch.</desc>
    <g id="Page-1" stroke="none" stroke-width="1" fill="none" fill-rule="evenodd">
        <g id="Lead-Page-1-Copy" transform="translate(-99.000000, -150.000000)" fill="#ED5A5A">
            <g id="Group-5-Copy" transform="translate(84.000000, 130.000000)">
                <g id="Group-18" transform="translate(14.019639, 20.000000)">
                    <circle id="Oval" opacity="0.15" cx="33.4803612" cy="32.5" r="32.5"></circle>
                    <path d="M28.1713318,29.88307 C27.8243792,30.2300226 27.8243792,30.786456 28.1713318,31.1334086 L32.858465,35.8205418 C33.0286682,35.9907449 33.2577878,36.0823928 33.4803612,36.0823928 C33.7029345,36.0823928 33.9320542,35.9972912 34.1022573,35.8205418 L38.7893905,31.1334086 C39.1363431,30.786456 39.1363431,30.2300226 38.7893905,29.88307 C38.4424379,29.5361174 37.8860045,29.5361174 37.5390519,29.88307 L34.3641084,33.0580135 L34.3641084,17.8837472 C34.3641084,17.3927765 33.9713318,17 33.4803612,17 C32.9893905,17 32.596614,17.3927765 32.596614,17.8837472 L32.596614,33.0580135 L29.4216704,29.88307 C29.0747178,29.5361174 28.5117381,29.5361174 28.1713318,29.88307 Z" id="Path" fill-rule="nonzero"></path>
                    <path d="M47.927991,37.1232506 L44.8512415,25.9945824 C44.7792325,25.7392777 44.6024831,25.5363431 44.3668172,25.4250564 L44.2817156,25.3857788 C44.1638826,25.3334086 44.0395034,25.3072235 43.9151242,25.3072235 L38.3704289,25.3072235 C37.8794582,25.3072235 37.4866817,25.7 37.4866817,26.1909707 C37.4866817,26.6819413 37.8794582,27.0747178 38.3704289,27.0747178 L43.3194131,27.0747178 L45.9182844,36.4882619 L39.0446953,36.4882619 C38.5537246,36.4882619 38.1609481,36.8810384 38.1609481,37.372009 L38.1609481,38.1706546 C38.1609481,39.3424379 37.2117381,40.2916479 36.0399549,40.2916479 L30.6458239,40.2916479 C29.4740406,40.2916479 28.5248307,39.3424379 28.5248307,38.1706546 L28.5248307,37.372009 C28.5248307,36.8810384 28.1320542,36.4882619 27.6410835,36.4882619 L21.0358916,36.4882619 L23.6478555,27.055079 L28.5968397,27.055079 C29.0878104,27.055079 29.4805869,26.6623025 29.4805869,26.1713318 C29.4805869,25.6803612 29.0878104,25.2875847 28.5968397,25.2875847 L23.0455982,25.2875847 C22.921219,25.2875847 22.7968397,25.3137698 22.6790068,25.36614 L22.5939052,25.4054176 C22.3582393,25.5167043 22.1749436,25.7196388 22.1094808,25.9749436 L19.0327314,37.1036117 C19.0130926,37.182167 19,37.2607223 19,37.3392777 L19,41.9805869 C19,45.4959368 21.8607223,48.3566591 25.3760722,48.3566591 L41.5846501,48.3566591 C45.1,48.3566591 47.9607223,45.4959368 47.9607223,41.9805869 L47.9607223,37.3589165 C47.9607223,37.2738149 47.9541761,37.1952596 47.927991,37.1232506 Z M46.193228,41.9805869 C46.193228,44.5205418 44.124605,46.5891648 41.5846501,46.5891648 L25.3760722,46.5891648 C22.8361174,46.5891648 20.7674944,44.5205418 20.7674944,41.9805869 L20.7674944,38.2557562 L26.7704289,38.2557562 C26.8162528,40.3571106 28.5444695,42.0525959 30.6589165,42.0525959 L36.0530474,42.0525959 C38.1674944,42.0525959 39.8957111,40.3571106 39.941535,38.2557562 L46.2063205,38.2557562 L46.2063205,41.9805869 L46.193228,41.9805869 Z" id="Shape" fill-rule="nonzero"></path>
                </g>
            </g>
        </g>
    </g>
</svg>